<?xml version="1.0" encoding="utf-8" standalone="no"?>
<!DOCTYPE svg PUBLIC "-//W3C//DTD SVG 1.1//EN"
  "http://www.w3.org/Graphics/SVG/1.1/DTD/svg11.dtd">
<svg xmlns:xlink="http://www.w3.org/1999/xlink" width="324pt" height="216pt" viewBox="0 0 324 216" xmlns="http://www.w3.org/2000/svg" version="1.1">
 <metadata>
  <rdf:RDF xmlns:dc="http://purl.org/dc/elements/1.1/" xmlns:cc="http://creativecommons.org/ns#" xmlns:rdf="http://www.w3.org/1999/02/22-rdf-syntax-ns#">
   <cc:Work>
    <dc:type rdf:resource="http://purl.org/dc/dcmitype/StillImage"/>
    <dc:date>2024-10-01T20:52:54.144540</dc:date>
    <dc:format>image/svg+xml</dc:format>
    <dc:creator>
     <cc:Agent>
      <dc:title>Matplotlib v3.9.1.post1, https://matplotlib.org/</dc:title>
     </cc:Agent>
    </dc:creator>
   </cc:Work>
  </rdf:RDF>
 </metadata>
 <defs>
  <style type="text/css">*{stroke-linejoin: round; stroke-linecap: butt}</style>
 </defs>
 <g id="figure_1">
  <g id="patch_1">
   <path d="M 0 216 
L 324 216 
L 324 0 
L 0 0 
z
" style="fill: #ffffff"/>
  </g>
  <g id="axes_1">
   <g id="patch_2">
    <path d="M 36.38 175.48 
L 313.2 175.48 
L 313.2 39.84 
L 36.38 39.84 
z
" style="fill: #ffffff"/>
   </g>
   <g id="PolyCollection_1">
    <defs>
     <path id="mcde2efebec" d="M 49.067322 -51.897321 
L 49.067322 -51.776404 
L 59.526779 -49.790712 
L 69.986237 -48.319109 
L 80.445694 -46.685455 
L 90.905152 -107.916644 
L 101.364609 -115.456781 
L 111.824066 -119.39107 
L 122.283524 -121.096349 
L 132.742981 -140.331098 
L 143.202439 -130.756677 
L 153.661896 -105.307172 
L 164.121353 -102.380797 
L 174.580811 -77.740409 
L 185.040268 -80.002738 
L 195.499726 -89.96759 
L 205.959183 -60.456742 
L 216.418641 -84.499717 
L 226.878098 -88.07974 
L 237.337555 -71.237694 
L 247.797013 -91.096404 
L 258.25647 -102.494565 
L 268.715928 -69.588137 
L 279.175385 -85.452036 
L 289.634842 -81.323279 
L 300.0943 -70.05985 
L 300.0943 -73.261381 
L 300.0943 -73.261381 
L 289.634842 -93.082032 
L 279.175385 -105.702589 
L 268.715928 -76.152148 
L 258.25647 -127.001591 
L 247.797013 -97.551157 
L 237.337555 -79.844086 
L 226.878098 -91.345579 
L 216.418641 -87.022211 
L 205.959183 -98.314385 
L 195.499726 -93.57952 
L 185.040268 -85.299918 
L 174.580811 -92.025038 
L 164.121353 -106.873471 
L 153.661896 -117.093214 
L 143.202439 -131.180453 
L 132.742981 -144.590729 
L 122.283524 -124.876174 
L 111.824066 -122.772609 
L 101.364609 -122.465469 
L 90.905152 -115.001406 
L 80.445694 -87.499786 
L 69.986237 -76.047429 
L 59.526779 -64.943637 
L 49.067322 -51.897321 
z
"/>
    </defs>
    <g clip-path="url(#pb10b341acd)">
     <use xlink:href="#mcde2efebec" x="0" y="216" style="fill: #003380; fill-opacity: 0.2"/>
    </g>
   </g>
   <g id="PolyCollection_2">
    <defs>
     <path id="m5025bbf887" d="M 49.067322 -63.465492 
L 49.067322 -62.126462 
L 59.526779 -79.99882 
L 69.986237 -107.499733 
L 80.445694 -129.822097 
L 90.905152 -147.691566 
L 101.364609 -156.672807 
L 111.824066 -156.963777 
L 122.283524 -151.615876 
L 132.742981 -164.940801 
L 143.202439 -149.93464 
L 153.661896 -122.725207 
L 164.121353 -110.661717 
L 174.580811 -103.88317 
L 185.040268 -91.378636 
L 195.499726 -102.03113 
L 205.959183 -95.679645 
L 216.418641 -92.532812 
L 226.878098 -84.094985 
L 237.337555 -78.52429 
L 237.337555 -78.52429 
L 237.337555 -78.52429 
L 226.878098 -90.761321 
L 216.418641 -97.467926 
L 205.959183 -107.764034 
L 195.499726 -105.083398 
L 185.040268 -98.841704 
L 174.580811 -111.012049 
L 164.121353 -116.736464 
L 153.661896 -134.660274 
L 143.202439 -151.534017 
L 132.742981 -169.357334 
L 122.283524 -159.636346 
L 111.824066 -169.994545 
L 101.364609 -164.998223 
L 90.905152 -152.442965 
L 80.445694 -136.77493 
L 69.986237 -111.263409 
L 59.526779 -85.10779 
L 49.067322 -63.465492 
z
"/>
    </defs>
    <g clip-path="url(#pb10b341acd)">
     <use xlink:href="#m5025bbf887" x="0" y="216" style="fill: #008033; fill-opacity: 0.2"/>
    </g>
   </g>
   <g id="matplotlib.axis_1">
    <g id="xtick_1">
     <g id="line2d_1">
      <path d="M 38.607864 175.48 
L 38.607864 39.84 
" clip-path="url(#pb10b341acd)" style="fill: none; stroke: #b0b0b0; stroke-width: 0.8; stroke-linecap: square"/>
     </g>
     <g id="line2d_2">
      <defs>
       <path id="m62b506a98f" d="M 0 0 
L 0 3.5 
" style="stroke: #000000; stroke-width: 0.8"/>
      </defs>
      <g>
       <use xlink:href="#m62b506a98f" x="38.607864" y="175.48" style="stroke: #000000; stroke-width: 0.8"/>
      </g>
     </g>
     <g id="text_1">
      <!-- 0 -->
      <g transform="translate(35.993021 189.051875) scale(0.1 -0.1)">
       <defs>
        <path id="AptosDisplay-30" d="M 1672 -56 
Q 1291 -56 1028 105 
Q 766 266 605 552 
Q 444 838 372 1216 
Q 300 1594 300 2031 
Q 300 2475 372 2856 
Q 444 3238 605 3525 
Q 766 3813 1028 3973 
Q 1291 4134 1672 4134 
Q 2053 4134 2317 3975 
Q 2581 3816 2742 3527 
Q 2903 3238 2975 2858 
Q 3047 2478 3047 2038 
Q 3047 1597 2975 1217 
Q 2903 838 2742 552 
Q 2581 266 2318 105 
Q 2056 -56 1672 -56 
z
M 1672 409 
Q 1916 409 2073 550 
Q 2231 691 2322 925 
Q 2413 1159 2448 1448 
Q 2484 1738 2484 2038 
Q 2484 2338 2448 2628 
Q 2413 2919 2322 3153 
Q 2231 3388 2073 3527 
Q 1916 3666 1669 3666 
Q 1428 3666 1268 3527 
Q 1109 3388 1020 3153 
Q 931 2919 893 2628 
Q 856 2338 856 2038 
Q 856 1741 893 1450 
Q 931 1159 1020 925 
Q 1109 691 1268 550 
Q 1428 409 1672 409 
z
" transform="scale(0.015625)"/>
       </defs>
       <use xlink:href="#AptosDisplay-30"/>
      </g>
     </g>
    </g>
    <g id="xtick_2">
     <g id="line2d_3">
      <path d="M 90.905152 175.48 
L 90.905152 39.84 
" clip-path="url(#pb10b341acd)" style="fill: none; stroke: #b0b0b0; stroke-width: 0.8; stroke-linecap: square"/>
     </g>
     <g id="line2d_4">
      <g>
       <use xlink:href="#m62b506a98f" x="90.905152" y="175.48" style="stroke: #000000; stroke-width: 0.8"/>
      </g>
     </g>
     <g id="text_2">
      <!-- 5 -->
      <g transform="translate(88.290308 189.051875) scale(0.1 -0.1)">
       <defs>
        <path id="AptosDisplay-35" d="M 1669 -56 
Q 1278 -56 964 83 
Q 650 222 465 483 
Q 281 744 281 1113 
L 816 1113 
Q 816 778 1055 584 
Q 1294 391 1669 391 
Q 2069 391 2291 625 
Q 2513 859 2513 1319 
Q 2513 1772 2291 1989 
Q 2069 2206 1697 2206 
Q 1409 2206 1223 2123 
Q 1038 2041 916 1894 
L 444 1894 
L 622 4078 
L 2788 4078 
L 2788 3613 
L 1041 3613 
L 931 2322 
Q 1044 2453 1251 2550 
Q 1459 2647 1775 2647 
Q 2131 2647 2420 2506 
Q 2709 2366 2881 2072 
Q 3053 1778 3053 1319 
Q 3053 863 2875 558 
Q 2697 253 2384 98 
Q 2072 -56 1669 -56 
z
" transform="scale(0.015625)"/>
       </defs>
       <use xlink:href="#AptosDisplay-35"/>
      </g>
     </g>
    </g>
    <g id="xtick_3">
     <g id="line2d_5">
      <path d="M 143.202439 175.48 
L 143.202439 39.84 
" clip-path="url(#pb10b341acd)" style="fill: none; stroke: #b0b0b0; stroke-width: 0.8; stroke-linecap: square"/>
     </g>
     <g id="line2d_6">
      <g>
       <use xlink:href="#m62b506a98f" x="143.202439" y="175.48" style="stroke: #000000; stroke-width: 0.8"/>
      </g>
     </g>
     <g id="text_3">
      <!-- 10 -->
      <g transform="translate(137.972751 189.051875) scale(0.1 -0.1)">
       <defs>
        <path id="AptosDisplay-31" d="M 1659 0 
L 1659 3425 
Q 1575 3309 1420 3201 
Q 1266 3094 1052 3009 
Q 838 2925 578 2888 
L 578 3381 
Q 834 3425 1057 3540 
Q 1281 3656 1453 3806 
Q 1625 3956 1719 4094 
L 2206 4094 
L 2206 0 
L 1659 0 
z
" transform="scale(0.015625)"/>
       </defs>
       <use xlink:href="#AptosDisplay-31"/>
       <use xlink:href="#AptosDisplay-30" x="52.294922"/>
      </g>
     </g>
    </g>
    <g id="xtick_4">
     <g id="line2d_7">
      <path d="M 195.499726 175.48 
L 195.499726 39.84 
" clip-path="url(#pb10b341acd)" style="fill: none; stroke: #b0b0b0; stroke-width: 0.8; stroke-linecap: square"/>
     </g>
     <g id="line2d_8">
      <g>
       <use xlink:href="#m62b506a98f" x="195.499726" y="175.48" style="stroke: #000000; stroke-width: 0.8"/>
      </g>
     </g>
     <g id="text_4">
      <!-- 15 -->
      <g transform="translate(190.270038 189.051875) scale(0.1 -0.1)">
       <use xlink:href="#AptosDisplay-31"/>
       <use xlink:href="#AptosDisplay-35" x="52.294922"/>
      </g>
     </g>
    </g>
    <g id="xtick_5">
     <g id="line2d_9">
      <path d="M 247.797013 175.48 
L 247.797013 39.84 
" clip-path="url(#pb10b341acd)" style="fill: none; stroke: #b0b0b0; stroke-width: 0.8; stroke-linecap: square"/>
     </g>
     <g id="line2d_10">
      <g>
       <use xlink:href="#m62b506a98f" x="247.797013" y="175.48" style="stroke: #000000; stroke-width: 0.8"/>
      </g>
     </g>
     <g id="text_5">
      <!-- 20 -->
      <g transform="translate(242.567325 189.051875) scale(0.1 -0.1)">
       <defs>
        <path id="AptosDisplay-32" d="M 247 0 
L 247 413 
L 1725 1741 
Q 2100 2081 2269 2351 
Q 2438 2622 2438 2938 
Q 2438 3256 2263 3461 
Q 2088 3666 1691 3666 
Q 1247 3666 1055 3439 
Q 863 3213 863 2869 
L 341 2869 
Q 341 3250 491 3534 
Q 641 3819 941 3975 
Q 1241 4131 1691 4131 
Q 2103 4131 2390 3986 
Q 2678 3841 2828 3578 
Q 2978 3316 2978 2959 
Q 2978 2638 2853 2375 
Q 2728 2113 2517 1883 
Q 2306 1653 2044 1425 
L 959 463 
L 3097 463 
L 3097 0 
L 247 0 
z
" transform="scale(0.015625)"/>
       </defs>
       <use xlink:href="#AptosDisplay-32"/>
       <use xlink:href="#AptosDisplay-30" x="52.294922"/>
      </g>
     </g>
    </g>
    <g id="xtick_6">
     <g id="line2d_11">
      <path d="M 300.0943 175.48 
L 300.0943 39.84 
" clip-path="url(#pb10b341acd)" style="fill: none; stroke: #b0b0b0; stroke-width: 0.8; stroke-linecap: square"/>
     </g>
     <g id="line2d_12">
      <g>
       <use xlink:href="#m62b506a98f" x="300.0943" y="175.48" style="stroke: #000000; stroke-width: 0.8"/>
      </g>
     </g>
     <g id="text_6">
      <!-- 25 -->
      <g transform="translate(294.864612 189.051875) scale(0.1 -0.1)">
       <use xlink:href="#AptosDisplay-32"/>
       <use xlink:href="#AptosDisplay-35" x="52.294922"/>
      </g>
     </g>
    </g>
    <g id="text_7">
     <!-- 2nd Harmonic Frequency (GHz) -->
     <g transform="translate(111.193906 201.475313) scale(0.1 -0.1)">
      <defs>
       <path id="AptosDisplay-6e" d="M 413 0 
L 413 3044 
L 919 3044 
L 931 2575 
Q 1066 2756 1316 2914 
Q 1566 3072 1941 3072 
Q 2428 3072 2637 2781 
Q 2847 2491 2847 1963 
L 2847 0 
L 2328 0 
L 2328 1891 
Q 2328 2106 2286 2275 
Q 2244 2444 2133 2539 
Q 2022 2634 1816 2634 
Q 1500 2634 1283 2482 
Q 1066 2331 934 2156 
L 934 0 
L 413 0 
z
" transform="scale(0.015625)"/>
       <path id="AptosDisplay-64" d="M 1434 -56 
Q 1078 -56 815 120 
Q 553 297 409 644 
Q 266 991 266 1503 
Q 266 2031 412 2386 
Q 559 2741 831 2920 
Q 1103 3100 1472 3100 
Q 1803 3100 2029 2959 
Q 2256 2819 2397 2578 
L 2397 4206 
L 2906 4206 
L 2906 0 
L 2425 0 
L 2391 459 
Q 2244 228 2006 86 
Q 1769 -56 1434 -56 
z
M 1525 372 
Q 1841 372 2052 534 
Q 2263 697 2381 922 
L 2381 2103 
Q 2266 2356 2064 2514 
Q 1863 2672 1566 2672 
Q 1184 2672 993 2370 
Q 803 2069 803 1506 
Q 803 956 986 664 
Q 1169 372 1525 372 
z
" transform="scale(0.015625)"/>
       <path id="AptosDisplay-20" transform="scale(0.015625)"/>
       <path id="AptosDisplay-48" d="M 472 0 
L 472 4206 
L 1034 4206 
L 1034 2441 
L 3206 2441 
L 3206 4206 
L 3763 4206 
L 3763 0 
L 3206 0 
L 3206 1953 
L 1034 1953 
L 1034 0 
L 472 0 
z
" transform="scale(0.015625)"/>
       <path id="AptosDisplay-61" d="M 1163 -56 
Q 916 -56 712 41 
Q 509 138 387 331 
Q 266 525 266 813 
Q 266 1225 508 1437 
Q 750 1650 1194 1725 
Q 1638 1800 2231 1806 
L 2231 2028 
Q 2231 2419 2053 2564 
Q 1875 2709 1606 2709 
Q 1313 2709 1113 2554 
Q 913 2400 913 2059 
L 406 2059 
Q 406 2428 561 2658 
Q 716 2888 987 2992 
Q 1259 3097 1606 3097 
Q 1825 3097 2028 3053 
Q 2231 3009 2393 2893 
Q 2556 2778 2650 2570 
Q 2744 2363 2744 2034 
L 2744 0 
L 2263 0 
L 2244 444 
Q 2044 213 1778 78 
Q 1513 -56 1163 -56 
z
M 1300 344 
Q 1597 344 1831 483 
Q 2066 622 2228 847 
L 2228 1481 
Q 1456 1472 1122 1323 
Q 788 1175 788 834 
Q 788 609 916 476 
Q 1044 344 1300 344 
z
" transform="scale(0.015625)"/>
       <path id="AptosDisplay-72" d="M 413 0 
L 413 3044 
L 903 3044 
L 922 2528 
Q 1053 2763 1281 2922 
Q 1509 3081 1872 3081 
L 1934 3081 
L 1934 2603 
L 1863 2603 
Q 1634 2603 1462 2543 
Q 1291 2484 1164 2379 
Q 1038 2275 934 2138 
L 934 0 
L 413 0 
z
" transform="scale(0.015625)"/>
       <path id="AptosDisplay-6d" d="M 413 0 
L 413 3044 
L 919 3044 
L 931 2575 
Q 1063 2756 1303 2914 
Q 1544 3072 1903 3072 
Q 2403 3072 2618 2778 
Q 2834 2484 2834 1963 
L 2834 0 
L 2316 0 
L 2316 1891 
Q 2316 2106 2275 2275 
Q 2234 2444 2120 2539 
Q 2006 2634 1788 2634 
Q 1488 2634 1277 2482 
Q 1066 2331 934 2156 
L 934 0 
L 413 0 
z
M 4206 0 
L 4206 1891 
Q 4206 2106 4164 2275 
Q 4122 2444 4009 2539 
Q 3897 2634 3681 2634 
Q 3381 2634 3165 2484 
Q 2950 2334 2822 2159 
L 2744 2544 
Q 2916 2741 3175 2906 
Q 3434 3072 3800 3072 
Q 4291 3072 4509 2778 
Q 4728 2484 4728 1963 
L 4728 0 
L 4206 0 
z
" transform="scale(0.015625)"/>
       <path id="AptosDisplay-6f" d="M 1622 -50 
Q 1194 -50 891 137 
Q 588 325 427 676 
Q 266 1028 266 1516 
Q 266 2009 427 2364 
Q 588 2719 891 2909 
Q 1194 3100 1622 3100 
Q 2059 3100 2371 2909 
Q 2684 2719 2850 2364 
Q 3016 2009 3016 1516 
Q 3016 1028 2850 676 
Q 2684 325 2371 137 
Q 2059 -50 1622 -50 
z
M 1622 363 
Q 1938 363 2123 513 
Q 2309 663 2392 922 
Q 2475 1181 2475 1516 
Q 2475 1850 2392 2112 
Q 2309 2375 2123 2526 
Q 1938 2678 1622 2678 
Q 1325 2678 1144 2526 
Q 963 2375 883 2112 
Q 803 1850 803 1513 
Q 803 1181 883 922 
Q 963 663 1144 513 
Q 1325 363 1622 363 
z
" transform="scale(0.015625)"/>
       <path id="AptosDisplay-69" d="M 413 0 
L 413 3044 
L 934 3044 
L 934 0 
L 413 0 
z
M 675 3616 
Q 525 3616 437 3702 
Q 350 3788 350 3919 
Q 350 4050 437 4136 
Q 525 4222 675 4222 
Q 822 4222 912 4136 
Q 1003 4050 1003 3919 
Q 1003 3788 912 3702 
Q 822 3616 675 3616 
z
" transform="scale(0.015625)"/>
       <path id="AptosDisplay-63" d="M 1634 -53 
Q 1234 -53 925 122 
Q 616 297 441 645 
Q 266 994 266 1513 
Q 266 2031 437 2384 
Q 609 2738 917 2916 
Q 1225 3094 1634 3094 
Q 1978 3094 2251 2978 
Q 2525 2863 2689 2630 
Q 2853 2397 2866 2041 
L 2350 2041 
Q 2328 2334 2139 2503 
Q 1950 2672 1644 2672 
Q 1228 2672 1015 2367 
Q 803 2063 803 1513 
Q 803 1150 897 894 
Q 991 638 1178 503 
Q 1366 369 1644 369 
Q 1956 369 2159 541 
Q 2363 713 2372 1047 
L 2884 1047 
Q 2878 681 2711 436 
Q 2544 191 2264 69 
Q 1984 -53 1634 -53 
z
" transform="scale(0.015625)"/>
       <path id="AptosDisplay-46" d="M 472 0 
L 472 4206 
L 3091 4206 
L 3091 3738 
L 1034 3738 
L 1034 2394 
L 2894 2394 
L 2894 1934 
L 1034 1934 
L 1034 0 
L 472 0 
z
" transform="scale(0.015625)"/>
       <path id="AptosDisplay-65" d="M 1663 -56 
Q 1188 -56 878 151 
Q 569 359 417 717 
Q 266 1075 266 1522 
Q 266 1988 412 2342 
Q 559 2697 857 2897 
Q 1156 3097 1606 3097 
Q 2209 3097 2550 2722 
Q 2891 2347 2891 1644 
Q 2891 1597 2889 1533 
Q 2888 1469 2881 1441 
L 791 1441 
Q 794 1144 881 895 
Q 969 647 1161 497 
Q 1353 347 1663 347 
Q 1997 347 2183 511 
Q 2369 675 2378 984 
L 2894 984 
Q 2884 663 2732 430 
Q 2581 197 2309 70 
Q 2038 -56 1663 -56 
z
M 794 1822 
L 2375 1822 
Q 2366 2247 2166 2472 
Q 1966 2697 1606 2697 
Q 1241 2697 1036 2473 
Q 831 2250 794 1822 
z
" transform="scale(0.015625)"/>
       <path id="AptosDisplay-71" d="M 2391 -1128 
L 2391 459 
Q 2241 222 1997 75 
Q 1753 -72 1428 -72 
Q 1075 -72 814 106 
Q 553 284 409 636 
Q 266 988 266 1503 
Q 266 2028 416 2379 
Q 566 2731 839 2907 
Q 1113 3084 1475 3084 
Q 1806 3084 2029 2948 
Q 2253 2813 2397 2578 
L 2406 3044 
L 2906 3044 
L 2906 -1128 
L 2391 -1128 
z
M 1519 359 
Q 1838 359 2048 525 
Q 2259 691 2381 925 
L 2381 2103 
Q 2263 2350 2067 2504 
Q 1872 2659 1563 2659 
Q 1197 2659 1000 2359 
Q 803 2059 803 1503 
Q 803 950 983 654 
Q 1163 359 1519 359 
z
" transform="scale(0.015625)"/>
       <path id="AptosDisplay-75" d="M 1316 -31 
Q 822 -31 605 264 
Q 388 559 388 1078 
L 388 3044 
L 913 3044 
L 913 1150 
Q 913 938 955 775 
Q 997 613 1112 520 
Q 1228 428 1444 428 
Q 1756 428 1965 568 
Q 2175 709 2303 888 
L 2303 3044 
L 2825 3044 
L 2825 0 
L 2322 0 
L 2309 469 
Q 2175 291 1929 130 
Q 1684 -31 1316 -31 
z
" transform="scale(0.015625)"/>
       <path id="AptosDisplay-79" d="M 266 -1128 
L 266 -697 
L 525 -697 
Q 716 -697 831 -598 
Q 947 -500 1038 -275 
L 1153 0 
L -13 3044 
L 538 3044 
L 1428 553 
L 2250 3044 
L 2781 3044 
L 1688 0 
L 1550 -356 
Q 1441 -647 1314 -815 
Q 1188 -984 1013 -1056 
Q 838 -1128 578 -1128 
L 266 -1128 
z
" transform="scale(0.015625)"/>
       <path id="AptosDisplay-28" d="M 1219 -1116 
Q 969 -678 787 -267 
Q 606 144 511 581 
Q 416 1019 416 1528 
Q 416 2028 509 2486 
Q 603 2944 783 3378 
Q 963 3813 1219 4231 
L 1647 4231 
Q 1278 3600 1101 2886 
Q 925 2172 925 1428 
Q 925 766 1125 103 
Q 1325 -559 1647 -1116 
L 1219 -1116 
z
" transform="scale(0.015625)"/>
       <path id="AptosDisplay-47" d="M 2234 -56 
Q 1600 -56 1165 216 
Q 731 488 509 973 
Q 288 1459 288 2100 
Q 288 2744 509 3231 
Q 731 3719 1165 3991 
Q 1600 4263 2234 4263 
Q 2544 4263 2831 4180 
Q 3119 4097 3351 3930 
Q 3584 3763 3732 3509 
Q 3881 3256 3916 2913 
L 3347 2913 
Q 3319 3153 3178 3354 
Q 3038 3556 2798 3679 
Q 2559 3803 2228 3803 
Q 1744 3803 1442 3573 
Q 1141 3344 998 2959 
Q 856 2575 856 2100 
Q 856 1628 998 1245 
Q 1141 863 1444 638 
Q 1747 413 2234 413 
Q 2653 413 2922 570 
Q 3191 728 3323 1011 
Q 3456 1294 3463 1663 
L 2297 1663 
L 2297 2128 
L 4009 2128 
L 4009 1800 
Q 4009 1253 3811 834 
Q 3613 416 3219 180 
Q 2825 -56 2234 -56 
z
" transform="scale(0.015625)"/>
       <path id="AptosDisplay-7a" d="M 200 0 
L 200 400 
L 1813 2622 
L 331 2622 
L 331 3044 
L 2438 3044 
L 2438 2672 
L 803 422 
L 2528 422 
L 2528 0 
L 200 0 
z
" transform="scale(0.015625)"/>
       <path id="AptosDisplay-29" d="M 234 -1116 
Q 609 -481 786 233 
Q 963 947 963 1694 
Q 963 2356 759 3015 
Q 556 3675 234 4231 
L 663 4231 
Q 919 3800 1098 3389 
Q 1278 2978 1373 2540 
Q 1469 2103 1469 1594 
Q 1469 1094 1375 634 
Q 1281 175 1100 -259 
Q 919 -694 663 -1116 
L 234 -1116 
z
" transform="scale(0.015625)"/>
      </defs>
      <use xlink:href="#AptosDisplay-32"/>
      <use xlink:href="#AptosDisplay-6e" x="52.294922"/>
      <use xlink:href="#AptosDisplay-64" x="102.880859"/>
      <use xlink:href="#AptosDisplay-20" x="154.736328"/>
      <use xlink:href="#AptosDisplay-48" x="174.023438"/>
      <use xlink:href="#AptosDisplay-61" x="240.185547"/>
      <use xlink:href="#AptosDisplay-72" x="289.111328"/>
      <use xlink:href="#AptosDisplay-6d" x="320.117188"/>
      <use xlink:href="#AptosDisplay-6f" x="400.097656"/>
      <use xlink:href="#AptosDisplay-6e" x="451.367188"/>
      <use xlink:href="#AptosDisplay-69" x="501.953125"/>
      <use xlink:href="#AptosDisplay-63" x="522.998047"/>
      <use xlink:href="#AptosDisplay-20" x="572.265625"/>
      <use xlink:href="#AptosDisplay-46" x="591.552734"/>
      <use xlink:href="#AptosDisplay-72" x="642.480469"/>
      <use xlink:href="#AptosDisplay-65" x="673.486328"/>
      <use xlink:href="#AptosDisplay-71" x="722.900391"/>
      <use xlink:href="#AptosDisplay-75" x="774.755859"/>
      <use xlink:href="#AptosDisplay-65" x="825.341797"/>
      <use xlink:href="#AptosDisplay-6e" x="874.755859"/>
      <use xlink:href="#AptosDisplay-63" x="925.341797"/>
      <use xlink:href="#AptosDisplay-79" x="974.609375"/>
      <use xlink:href="#AptosDisplay-20" x="1017.871094"/>
      <use xlink:href="#AptosDisplay-28" x="1037.158203"/>
      <use xlink:href="#AptosDisplay-47" x="1066.601562"/>
      <use xlink:href="#AptosDisplay-48" x="1133.740234"/>
      <use xlink:href="#AptosDisplay-7a" x="1199.902344"/>
      <use xlink:href="#AptosDisplay-29" x="1242.480469"/>
     </g>
    </g>
   </g>
   <g id="matplotlib.axis_2">
    <g id="ytick_1">
     <g id="line2d_13">
      <path d="M 36.38 164.617415 
L 313.2 164.617415 
" clip-path="url(#pb10b341acd)" style="fill: none; stroke: #b0b0b0; stroke-width: 0.8; stroke-linecap: square"/>
     </g>
     <g id="line2d_14">
      <defs>
       <path id="m161b657817" d="M 0 0 
L -3.5 0 
" style="stroke: #000000; stroke-width: 0.8"/>
      </defs>
      <g>
       <use xlink:href="#m161b657817" x="36.38" y="164.617415" style="stroke: #000000; stroke-width: 0.8"/>
      </g>
     </g>
     <g id="text_8">
      <!-- 0 -->
      <g transform="translate(24.150313 167.903353) scale(0.1 -0.1)">
       <use xlink:href="#AptosDisplay-30"/>
      </g>
     </g>
    </g>
    <g id="ytick_2">
     <g id="line2d_15">
      <path d="M 36.38 135.91191 
L 313.2 135.91191 
" clip-path="url(#pb10b341acd)" style="fill: none; stroke: #b0b0b0; stroke-width: 0.8; stroke-linecap: square"/>
     </g>
     <g id="line2d_16">
      <g>
       <use xlink:href="#m161b657817" x="36.38" y="135.91191" style="stroke: #000000; stroke-width: 0.8"/>
      </g>
     </g>
     <g id="text_9">
      <!-- 2 -->
      <g transform="translate(24.150313 139.197847) scale(0.1 -0.1)">
       <use xlink:href="#AptosDisplay-32"/>
      </g>
     </g>
    </g>
    <g id="ytick_3">
     <g id="line2d_17">
      <path d="M 36.38 107.206404 
L 313.2 107.206404 
" clip-path="url(#pb10b341acd)" style="fill: none; stroke: #b0b0b0; stroke-width: 0.8; stroke-linecap: square"/>
     </g>
     <g id="line2d_18">
      <g>
       <use xlink:href="#m161b657817" x="36.38" y="107.206404" style="stroke: #000000; stroke-width: 0.8"/>
      </g>
     </g>
     <g id="text_10">
      <!-- 4 -->
      <g transform="translate(24.150313 110.492342) scale(0.1 -0.1)">
       <defs>
        <path id="AptosDisplay-34" d="M 2106 0 
L 2106 825 
L 125 825 
L 125 1297 
L 2100 4103 
L 2631 4103 
L 2631 1284 
L 3191 1284 
L 3191 825 
L 2631 825 
L 2631 0 
L 2106 0 
z
M 638 1284 
L 2113 1284 
L 2113 3369 
L 638 1284 
z
" transform="scale(0.015625)"/>
       </defs>
       <use xlink:href="#AptosDisplay-34"/>
      </g>
     </g>
    </g>
    <g id="ytick_4">
     <g id="line2d_19">
      <path d="M 36.38 78.500899 
L 313.2 78.500899 
" clip-path="url(#pb10b341acd)" style="fill: none; stroke: #b0b0b0; stroke-width: 0.8; stroke-linecap: square"/>
     </g>
     <g id="line2d_20">
      <g>
       <use xlink:href="#m161b657817" x="36.38" y="78.500899" style="stroke: #000000; stroke-width: 0.8"/>
      </g>
     </g>
     <g id="text_11">
      <!-- 6 -->
      <g transform="translate(24.150313 81.786836) scale(0.1 -0.1)">
       <defs>
        <path id="AptosDisplay-36" d="M 1759 -56 
Q 1325 -56 984 151 
Q 644 359 447 815 
Q 250 1272 250 2013 
Q 250 2738 439 3206 
Q 628 3675 968 3903 
Q 1309 4131 1759 4131 
Q 2253 4131 2595 3875 
Q 2938 3619 3034 3097 
L 2503 3097 
Q 2441 3388 2250 3534 
Q 2059 3681 1759 3681 
Q 1306 3681 1047 3279 
Q 788 2878 788 2013 
L 788 1850 
Q 788 1313 922 992 
Q 1056 672 1279 531 
Q 1503 391 1763 391 
Q 2175 391 2369 644 
Q 2563 897 2563 1272 
Q 2563 1650 2373 1869 
Q 2184 2088 1838 2088 
Q 1422 2088 1114 1897 
Q 806 1706 644 1456 
L 597 1856 
Q 728 2047 922 2201 
Q 1116 2356 1362 2447 
Q 1609 2538 1909 2538 
Q 2253 2538 2523 2395 
Q 2794 2253 2951 1975 
Q 3109 1697 3109 1291 
Q 3109 897 2951 592 
Q 2794 288 2492 116 
Q 2191 -56 1759 -56 
z
" transform="scale(0.015625)"/>
       </defs>
       <use xlink:href="#AptosDisplay-36"/>
      </g>
     </g>
    </g>
    <g id="ytick_5">
     <g id="line2d_21">
      <path d="M 36.38 49.795393 
L 313.2 49.795393 
" clip-path="url(#pb10b341acd)" style="fill: none; stroke: #b0b0b0; stroke-width: 0.8; stroke-linecap: square"/>
     </g>
     <g id="line2d_22">
      <g>
       <use xlink:href="#m161b657817" x="36.38" y="49.795393" style="stroke: #000000; stroke-width: 0.8"/>
      </g>
     </g>
     <g id="text_12">
      <!-- 8 -->
      <g transform="translate(24.150313 53.081331) scale(0.1 -0.1)">
       <defs>
        <path id="AptosDisplay-38" d="M 1675 -56 
Q 1391 -56 1137 16 
Q 884 88 686 234 
Q 488 381 373 606 
Q 259 831 259 1141 
Q 259 1531 495 1797 
Q 731 2063 1084 2150 
Q 781 2250 604 2490 
Q 428 2731 428 3081 
Q 428 3447 609 3681 
Q 791 3916 1075 4025 
Q 1359 4134 1669 4134 
Q 1981 4134 2265 4023 
Q 2550 3913 2733 3680 
Q 2916 3447 2916 3081 
Q 2916 2725 2716 2481 
Q 2516 2238 2238 2150 
Q 2606 2063 2843 1800 
Q 3081 1538 3081 1141 
Q 3081 831 2968 606 
Q 2856 381 2661 234 
Q 2466 88 2211 16 
Q 1956 -56 1675 -56 
z
M 1672 388 
Q 1909 388 2109 470 
Q 2309 553 2429 725 
Q 2550 897 2550 1163 
Q 2550 1416 2426 1587 
Q 2303 1759 2104 1846 
Q 1906 1934 1672 1928 
Q 1453 1934 1253 1850 
Q 1053 1766 926 1594 
Q 800 1422 800 1163 
Q 800 775 1058 581 
Q 1316 388 1672 388 
z
M 1672 2363 
Q 1863 2356 2030 2434 
Q 2197 2513 2300 2667 
Q 2403 2822 2403 3050 
Q 2403 3388 2189 3544 
Q 1975 3700 1675 3700 
Q 1484 3700 1317 3631 
Q 1150 3563 1047 3419 
Q 944 3275 944 3050 
Q 944 2825 1048 2670 
Q 1153 2516 1320 2436 
Q 1488 2356 1672 2363 
z
" transform="scale(0.015625)"/>
       </defs>
       <use xlink:href="#AptosDisplay-38"/>
      </g>
     </g>
    </g>
    <g id="text_13">
     <!-- Conversion Efficiency (%) -->
     <g transform="translate(18.387812 159.404531) rotate(-90) scale(0.1 -0.1)">
      <defs>
       <path id="AptosDisplay-43" d="M 2228 -56 
Q 1597 -56 1164 219 
Q 731 494 509 978 
Q 288 1463 288 2100 
Q 288 2738 509 3225 
Q 731 3713 1164 3988 
Q 1597 4263 2228 4263 
Q 2644 4263 3012 4113 
Q 3381 3963 3628 3655 
Q 3875 3347 3916 2878 
L 3350 2878 
Q 3316 3194 3153 3398 
Q 2991 3603 2748 3703 
Q 2506 3803 2228 3803 
Q 1744 3803 1444 3572 
Q 1144 3341 1005 2956 
Q 866 2572 866 2100 
Q 866 1631 1005 1247 
Q 1144 863 1444 636 
Q 1744 409 2228 409 
Q 2713 409 3013 662 
Q 3313 916 3366 1419 
L 3934 1419 
Q 3888 922 3653 595 
Q 3419 269 3051 106 
Q 2684 -56 2228 -56 
z
" transform="scale(0.015625)"/>
       <path id="AptosDisplay-76" d="M 1103 0 
L -13 3044 
L 538 3044 
L 1391 513 
L 2250 3044 
L 2781 3044 
L 1678 0 
L 1103 0 
z
" transform="scale(0.015625)"/>
       <path id="AptosDisplay-73" d="M 1506 -41 
Q 1247 -41 1017 14 
Q 788 69 613 191 
Q 438 313 339 506 
Q 241 700 241 978 
L 744 978 
Q 744 628 966 487 
Q 1188 347 1519 347 
Q 1816 347 2008 458 
Q 2200 569 2200 822 
Q 2200 1047 2026 1153 
Q 1853 1259 1413 1369 
Q 1056 1453 815 1564 
Q 575 1675 453 1845 
Q 331 2016 331 2275 
Q 331 2475 417 2626 
Q 503 2778 658 2879 
Q 813 2981 1020 3032 
Q 1228 3084 1472 3084 
Q 1713 3084 1923 3028 
Q 2134 2972 2296 2855 
Q 2459 2738 2551 2552 
Q 2644 2366 2644 2109 
L 2138 2109 
Q 2138 2425 1945 2558 
Q 1753 2691 1472 2691 
Q 1191 2691 1016 2594 
Q 841 2497 841 2291 
Q 841 2169 919 2084 
Q 997 2000 1181 1933 
Q 1366 1866 1675 1791 
Q 2019 1709 2248 1596 
Q 2478 1484 2595 1306 
Q 2713 1128 2713 847 
Q 2713 616 2622 447 
Q 2531 278 2367 170 
Q 2203 63 1983 11 
Q 1763 -41 1506 -41 
z
" transform="scale(0.015625)"/>
       <path id="AptosDisplay-45" d="M 472 0 
L 472 4206 
L 3153 4206 
L 3153 3738 
L 1034 3738 
L 1034 2397 
L 2984 2397 
L 2984 1934 
L 1034 1934 
L 1034 469 
L 3153 469 
L 3153 0 
L 472 0 
z
" transform="scale(0.015625)"/>
       <path id="AptosDisplay-66" d="M 550 0 
L 550 2622 
L 44 2622 
L 44 3044 
L 550 3044 
L 550 3219 
Q 550 3453 589 3636 
Q 628 3819 728 3947 
Q 828 4075 1004 4140 
Q 1181 4206 1463 4206 
L 1781 4206 
L 1781 3797 
L 1494 3797 
Q 1219 3797 1145 3645 
Q 1072 3494 1072 3209 
L 1072 3044 
L 1775 3044 
L 1775 2622 
L 1072 2622 
L 1072 0 
L 550 0 
z
" transform="scale(0.015625)"/>
       <path id="AptosDisplay-25" d="M 1188 0 
L 3669 4078 
L 4094 4078 
L 1613 0 
L 1188 0 
z
M 1197 1606 
Q 878 1606 679 1765 
Q 481 1925 390 2209 
Q 300 2494 300 2872 
Q 300 3253 390 3536 
Q 481 3819 679 3976 
Q 878 4134 1197 4134 
Q 1519 4134 1716 3976 
Q 1913 3819 2005 3536 
Q 2097 3253 2097 2872 
Q 2097 2494 2005 2209 
Q 1913 1925 1714 1765 
Q 1516 1606 1197 1606 
z
M 1197 1953 
Q 1391 1953 1498 2084 
Q 1606 2216 1648 2425 
Q 1691 2634 1691 2872 
Q 1691 3109 1648 3318 
Q 1606 3528 1498 3658 
Q 1391 3788 1197 3788 
Q 1006 3788 898 3658 
Q 791 3528 748 3318 
Q 706 3109 706 2872 
Q 706 2634 748 2425 
Q 791 2216 898 2084 
Q 1006 1953 1197 1953 
z
M 4084 -53 
Q 3769 -53 3570 105 
Q 3372 263 3281 547 
Q 3191 831 3191 1209 
Q 3191 1591 3281 1873 
Q 3372 2156 3570 2314 
Q 3769 2472 4084 2472 
Q 4406 2472 4604 2315 
Q 4803 2159 4893 1875 
Q 4984 1591 4984 1209 
Q 4984 831 4893 547 
Q 4803 263 4604 105 
Q 4406 -53 4084 -53 
z
M 4084 294 
Q 4281 294 4387 423 
Q 4494 553 4536 761 
Q 4578 969 4578 1209 
Q 4578 1447 4536 1656 
Q 4494 1866 4387 1994 
Q 4281 2122 4084 2122 
Q 3894 2122 3787 1994 
Q 3681 1866 3639 1656 
Q 3597 1447 3597 1209 
Q 3597 969 3639 761 
Q 3681 553 3787 423 
Q 3894 294 4084 294 
z
" transform="scale(0.015625)"/>
      </defs>
      <use xlink:href="#AptosDisplay-43"/>
      <use xlink:href="#AptosDisplay-6f" x="65.576172"/>
      <use xlink:href="#AptosDisplay-6e" x="116.845703"/>
      <use xlink:href="#AptosDisplay-76" x="167.431641"/>
      <use xlink:href="#AptosDisplay-65" x="210.693359"/>
      <use xlink:href="#AptosDisplay-72" x="260.107422"/>
      <use xlink:href="#AptosDisplay-73" x="291.113281"/>
      <use xlink:href="#AptosDisplay-69" x="337.402344"/>
      <use xlink:href="#AptosDisplay-6f" x="358.447266"/>
      <use xlink:href="#AptosDisplay-6e" x="409.716797"/>
      <use xlink:href="#AptosDisplay-20" x="460.302734"/>
      <use xlink:href="#AptosDisplay-45" x="479.589844"/>
      <use xlink:href="#AptosDisplay-66" x="533.642578"/>
      <use xlink:href="#AptosDisplay-66" x="561.962891"/>
      <use xlink:href="#AptosDisplay-69" x="590.283203"/>
      <use xlink:href="#AptosDisplay-63" x="611.328125"/>
      <use xlink:href="#AptosDisplay-69" x="660.595703"/>
      <use xlink:href="#AptosDisplay-65" x="681.640625"/>
      <use xlink:href="#AptosDisplay-6e" x="731.054688"/>
      <use xlink:href="#AptosDisplay-63" x="781.640625"/>
      <use xlink:href="#AptosDisplay-79" x="830.908203"/>
      <use xlink:href="#AptosDisplay-20" x="874.169922"/>
      <use xlink:href="#AptosDisplay-28" x="893.457031"/>
      <use xlink:href="#AptosDisplay-25" x="922.900391"/>
      <use xlink:href="#AptosDisplay-29" x="1005.419922"/>
     </g>
    </g>
   </g>
   <g id="line2d_23">
    <path d="M 49.067322 164.163138 
L 59.526779 158.632826 
L 69.986237 153.816731 
L 80.445694 148.90738 
L 90.905152 104.540975 
L 101.364609 97.038875 
L 111.824066 94.918161 
L 122.283524 93.013738 
L 132.742981 73.539087 
L 143.202439 85.031435 
L 153.661896 104.799807 
L 164.121353 111.372866 
L 174.580811 131.117276 
L 185.040268 133.348672 
L 195.499726 124.226445 
L 205.959183 136.614436 
L 216.418641 130.239036 
L 226.878098 126.287341 
L 237.337555 140.45911 
L 247.797013 121.676219 
L 258.25647 101.251922 
L 268.715928 143.129857 
L 279.175385 120.422687 
L 289.634842 128.797345 
L 300.0943 144.339384 
" clip-path="url(#pb10b341acd)" style="fill: none; stroke-dasharray: 1.5,2.475; stroke-dashoffset: 0; stroke: #003380; stroke-width: 1.5"/>
    <defs>
     <path id="mac2e188120" d="M 0 1.5 
C 0.397805 1.5 0.77937 1.341951 1.06066 1.06066 
C 1.341951 0.77937 1.5 0.397805 1.5 0 
C 1.5 -0.397805 1.341951 -0.77937 1.06066 -1.06066 
C 0.77937 -1.341951 0.397805 -1.5 0 -1.5 
C -0.397805 -1.5 -0.77937 -1.341951 -1.06066 -1.06066 
C -1.341951 -0.77937 -1.5 -0.397805 -1.5 0 
C -1.5 0.397805 -1.341951 0.77937 -1.06066 1.06066 
C -0.77937 1.341951 -0.397805 1.5 0 1.5 
z
" style="stroke: #003380"/>
    </defs>
    <g clip-path="url(#pb10b341acd)">
     <use xlink:href="#mac2e188120" x="49.067322" y="164.163138" style="fill: #003380; stroke: #003380"/>
     <use xlink:href="#mac2e188120" x="59.526779" y="158.632826" style="fill: #003380; stroke: #003380"/>
     <use xlink:href="#mac2e188120" x="69.986237" y="153.816731" style="fill: #003380; stroke: #003380"/>
     <use xlink:href="#mac2e188120" x="80.445694" y="148.90738" style="fill: #003380; stroke: #003380"/>
     <use xlink:href="#mac2e188120" x="90.905152" y="104.540975" style="fill: #003380; stroke: #003380"/>
     <use xlink:href="#mac2e188120" x="101.364609" y="97.038875" style="fill: #003380; stroke: #003380"/>
     <use xlink:href="#mac2e188120" x="111.824066" y="94.918161" style="fill: #003380; stroke: #003380"/>
     <use xlink:href="#mac2e188120" x="122.283524" y="93.013738" style="fill: #003380; stroke: #003380"/>
     <use xlink:href="#mac2e188120" x="132.742981" y="73.539087" style="fill: #003380; stroke: #003380"/>
     <use xlink:href="#mac2e188120" x="143.202439" y="85.031435" style="fill: #003380; stroke: #003380"/>
     <use xlink:href="#mac2e188120" x="153.661896" y="104.799807" style="fill: #003380; stroke: #003380"/>
     <use xlink:href="#mac2e188120" x="164.121353" y="111.372866" style="fill: #003380; stroke: #003380"/>
     <use xlink:href="#mac2e188120" x="174.580811" y="131.117276" style="fill: #003380; stroke: #003380"/>
     <use xlink:href="#mac2e188120" x="185.040268" y="133.348672" style="fill: #003380; stroke: #003380"/>
     <use xlink:href="#mac2e188120" x="195.499726" y="124.226445" style="fill: #003380; stroke: #003380"/>
     <use xlink:href="#mac2e188120" x="205.959183" y="136.614436" style="fill: #003380; stroke: #003380"/>
     <use xlink:href="#mac2e188120" x="216.418641" y="130.239036" style="fill: #003380; stroke: #003380"/>
     <use xlink:href="#mac2e188120" x="226.878098" y="126.287341" style="fill: #003380; stroke: #003380"/>
     <use xlink:href="#mac2e188120" x="237.337555" y="140.45911" style="fill: #003380; stroke: #003380"/>
     <use xlink:href="#mac2e188120" x="247.797013" y="121.676219" style="fill: #003380; stroke: #003380"/>
     <use xlink:href="#mac2e188120" x="258.25647" y="101.251922" style="fill: #003380; stroke: #003380"/>
     <use xlink:href="#mac2e188120" x="268.715928" y="143.129857" style="fill: #003380; stroke: #003380"/>
     <use xlink:href="#mac2e188120" x="279.175385" y="120.422687" style="fill: #003380; stroke: #003380"/>
     <use xlink:href="#mac2e188120" x="289.634842" y="128.797345" style="fill: #003380; stroke: #003380"/>
     <use xlink:href="#mac2e188120" x="300.0943" y="144.339384" style="fill: #003380; stroke: #003380"/>
    </g>
   </g>
   <g id="LineCollection_1">
    <path d="M 48.962727 164.163138 
L 49.171916 164.163138 
" clip-path="url(#pb10b341acd)" style="fill: none; stroke: #003380; stroke-width: 0.5"/>
    <path d="M 58.977727 158.632826 
L 60.075832 158.632826 
" clip-path="url(#pb10b341acd)" style="fill: none; stroke: #003380; stroke-width: 0.5"/>
    <path d="M 69.437184 153.816731 
L 70.535289 153.816731 
" clip-path="url(#pb10b341acd)" style="fill: none; stroke: #003380; stroke-width: 0.5"/>
    <path d="M 79.896642 148.90738 
L 80.994746 148.90738 
" clip-path="url(#pb10b341acd)" style="fill: none; stroke: #003380; stroke-width: 0.5"/>
    <path d="M 90.356099 104.540975 
L 91.454204 104.540975 
" clip-path="url(#pb10b341acd)" style="fill: none; stroke: #003380; stroke-width: 0.5"/>
    <path d="M 100.815557 97.038875 
L 101.913661 97.038875 
" clip-path="url(#pb10b341acd)" style="fill: none; stroke: #003380; stroke-width: 0.5"/>
    <path d="M 111.275014 94.918161 
L 112.373119 94.918161 
" clip-path="url(#pb10b341acd)" style="fill: none; stroke: #003380; stroke-width: 0.5"/>
    <path d="M 121.734471 93.013738 
L 122.832576 93.013738 
" clip-path="url(#pb10b341acd)" style="fill: none; stroke: #003380; stroke-width: 0.5"/>
    <path d="M 132.193929 73.539087 
L 133.292034 73.539087 
" clip-path="url(#pb10b341acd)" style="fill: none; stroke: #003380; stroke-width: 0.5"/>
    <path d="M 142.653386 85.031435 
L 143.751491 85.031435 
" clip-path="url(#pb10b341acd)" style="fill: none; stroke: #003380; stroke-width: 0.5"/>
    <path d="M 153.112844 104.799807 
L 154.210948 104.799807 
" clip-path="url(#pb10b341acd)" style="fill: none; stroke: #003380; stroke-width: 0.5"/>
    <path d="M 163.572301 111.372866 
L 164.670406 111.372866 
" clip-path="url(#pb10b341acd)" style="fill: none; stroke: #003380; stroke-width: 0.5"/>
    <path d="M 174.031759 131.117276 
L 175.129863 131.117276 
" clip-path="url(#pb10b341acd)" style="fill: none; stroke: #003380; stroke-width: 0.5"/>
    <path d="M 184.491216 133.348672 
L 185.589321 133.348672 
" clip-path="url(#pb10b341acd)" style="fill: none; stroke: #003380; stroke-width: 0.5"/>
    <path d="M 194.950673 124.226445 
L 196.048778 124.226445 
" clip-path="url(#pb10b341acd)" style="fill: none; stroke: #003380; stroke-width: 0.5"/>
    <path d="M 205.410131 136.614436 
L 206.508235 136.614436 
" clip-path="url(#pb10b341acd)" style="fill: none; stroke: #003380; stroke-width: 0.5"/>
    <path d="M 215.869588 130.239036 
L 216.967693 130.239036 
" clip-path="url(#pb10b341acd)" style="fill: none; stroke: #003380; stroke-width: 0.5"/>
    <path d="M 226.329046 126.287341 
L 227.42715 126.287341 
" clip-path="url(#pb10b341acd)" style="fill: none; stroke: #003380; stroke-width: 0.5"/>
    <path d="M 236.788503 140.45911 
L 237.886608 140.45911 
" clip-path="url(#pb10b341acd)" style="fill: none; stroke: #003380; stroke-width: 0.5"/>
    <path d="M 247.24796 121.676219 
L 248.346065 121.676219 
" clip-path="url(#pb10b341acd)" style="fill: none; stroke: #003380; stroke-width: 0.5"/>
    <path d="M 257.707418 101.251922 
L 258.805523 101.251922 
" clip-path="url(#pb10b341acd)" style="fill: none; stroke: #003380; stroke-width: 0.5"/>
    <path d="M 268.166875 143.129857 
L 269.26498 143.129857 
" clip-path="url(#pb10b341acd)" style="fill: none; stroke: #003380; stroke-width: 0.5"/>
    <path d="M 278.626333 120.422687 
L 279.724437 120.422687 
" clip-path="url(#pb10b341acd)" style="fill: none; stroke: #003380; stroke-width: 0.5"/>
    <path d="M 289.08579 128.797345 
L 290.183895 128.797345 
" clip-path="url(#pb10b341acd)" style="fill: none; stroke: #003380; stroke-width: 0.5"/>
    <path d="M 299.571327 144.339384 
L 300.617273 144.339384 
" clip-path="url(#pb10b341acd)" style="fill: none; stroke: #003380; stroke-width: 0.5"/>
   </g>
   <g id="LineCollection_2">
    <path d="M 49.067322 164.223596 
L 49.067322 164.102679 
" clip-path="url(#pb10b341acd)" style="fill: none; stroke: #003380; stroke-width: 0.5"/>
    <path d="M 59.526779 166.209288 
L 59.526779 151.056363 
" clip-path="url(#pb10b341acd)" style="fill: none; stroke: #003380; stroke-width: 0.5"/>
    <path d="M 69.986237 167.680891 
L 69.986237 139.952571 
" clip-path="url(#pb10b341acd)" style="fill: none; stroke: #003380; stroke-width: 0.5"/>
    <path d="M 80.445694 169.314545 
L 80.445694 128.500214 
" clip-path="url(#pb10b341acd)" style="fill: none; stroke: #003380; stroke-width: 0.5"/>
    <path d="M 90.905152 108.083356 
L 90.905152 100.998594 
" clip-path="url(#pb10b341acd)" style="fill: none; stroke: #003380; stroke-width: 0.5"/>
    <path d="M 101.364609 100.543219 
L 101.364609 93.534531 
" clip-path="url(#pb10b341acd)" style="fill: none; stroke: #003380; stroke-width: 0.5"/>
    <path d="M 111.824066 96.60893 
L 111.824066 93.227391 
" clip-path="url(#pb10b341acd)" style="fill: none; stroke: #003380; stroke-width: 0.5"/>
    <path d="M 122.283524 94.903651 
L 122.283524 91.123826 
" clip-path="url(#pb10b341acd)" style="fill: none; stroke: #003380; stroke-width: 0.5"/>
    <path d="M 132.742981 75.668902 
L 132.742981 71.409271 
" clip-path="url(#pb10b341acd)" style="fill: none; stroke: #003380; stroke-width: 0.5"/>
    <path d="M 143.202439 85.243323 
L 143.202439 84.819547 
" clip-path="url(#pb10b341acd)" style="fill: none; stroke: #003380; stroke-width: 0.5"/>
    <path d="M 153.661896 110.692828 
L 153.661896 98.906786 
" clip-path="url(#pb10b341acd)" style="fill: none; stroke: #003380; stroke-width: 0.5"/>
    <path d="M 164.121353 113.619203 
L 164.121353 109.126529 
" clip-path="url(#pb10b341acd)" style="fill: none; stroke: #003380; stroke-width: 0.5"/>
    <path d="M 174.580811 138.259591 
L 174.580811 123.974962 
" clip-path="url(#pb10b341acd)" style="fill: none; stroke: #003380; stroke-width: 0.5"/>
    <path d="M 185.040268 135.997262 
L 185.040268 130.700082 
" clip-path="url(#pb10b341acd)" style="fill: none; stroke: #003380; stroke-width: 0.5"/>
    <path d="M 195.499726 126.03241 
L 195.499726 122.42048 
" clip-path="url(#pb10b341acd)" style="fill: none; stroke: #003380; stroke-width: 0.5"/>
    <path d="M 205.959183 155.543258 
L 205.959183 117.685615 
" clip-path="url(#pb10b341acd)" style="fill: none; stroke: #003380; stroke-width: 0.5"/>
    <path d="M 216.418641 131.500283 
L 216.418641 128.977789 
" clip-path="url(#pb10b341acd)" style="fill: none; stroke: #003380; stroke-width: 0.5"/>
    <path d="M 226.878098 127.92026 
L 226.878098 124.654421 
" clip-path="url(#pb10b341acd)" style="fill: none; stroke: #003380; stroke-width: 0.5"/>
    <path d="M 237.337555 144.762306 
L 237.337555 136.155914 
" clip-path="url(#pb10b341acd)" style="fill: none; stroke: #003380; stroke-width: 0.5"/>
    <path d="M 247.797013 124.903596 
L 247.797013 118.448843 
" clip-path="url(#pb10b341acd)" style="fill: none; stroke: #003380; stroke-width: 0.5"/>
    <path d="M 258.25647 113.505435 
L 258.25647 88.998409 
" clip-path="url(#pb10b341acd)" style="fill: none; stroke: #003380; stroke-width: 0.5"/>
    <path d="M 268.715928 146.411863 
L 268.715928 139.847852 
" clip-path="url(#pb10b341acd)" style="fill: none; stroke: #003380; stroke-width: 0.5"/>
    <path d="M 279.175385 130.547964 
L 279.175385 110.297411 
" clip-path="url(#pb10b341acd)" style="fill: none; stroke: #003380; stroke-width: 0.5"/>
    <path d="M 289.634842 134.676721 
L 289.634842 122.917968 
" clip-path="url(#pb10b341acd)" style="fill: none; stroke: #003380; stroke-width: 0.5"/>
    <path d="M 300.0943 145.94015 
L 300.0943 142.738619 
" clip-path="url(#pb10b341acd)" style="fill: none; stroke: #003380; stroke-width: 0.5"/>
   </g>
   <g id="line2d_24">
    <path d="M 49.067322 153.204023 
L 59.526779 133.446695 
L 69.986237 106.618429 
L 80.445694 82.701486 
L 90.905152 65.932735 
L 101.364609 55.164485 
L 111.824066 52.520839 
L 122.283524 60.373889 
L 132.742981 48.850933 
L 143.202439 65.265671 
L 153.661896 87.30726 
L 164.121353 102.30091 
L 174.580811 108.552391 
L 185.040268 120.88983 
L 195.499726 112.442736 
L 205.959183 114.27816 
L 216.418641 120.999631 
L 226.878098 128.571847 
L 237.337555 137.47571 
" clip-path="url(#pb10b341acd)" style="fill: none; stroke-dasharray: 1.5,2.475; stroke-dashoffset: 0; stroke: #008033; stroke-width: 1.5"/>
    <defs>
     <path id="m102d002fa1" d="M 0 1.5 
C 0.397805 1.5 0.77937 1.341951 1.06066 1.06066 
C 1.341951 0.77937 1.5 0.397805 1.5 0 
C 1.5 -0.397805 1.341951 -0.77937 1.06066 -1.06066 
C 0.77937 -1.341951 0.397805 -1.5 0 -1.5 
C -0.397805 -1.5 -0.77937 -1.341951 -1.06066 -1.06066 
C -1.341951 -0.77937 -1.5 -0.397805 -1.5 0 
C -1.5 0.397805 -1.341951 0.77937 -1.06066 1.06066 
C -0.77937 1.341951 -0.397805 1.5 0 1.5 
z
" style="stroke: #008033"/>
    </defs>
    <g clip-path="url(#pb10b341acd)">
     <use xlink:href="#m102d002fa1" x="49.067322" y="153.204023" style="fill: #008033; stroke: #008033"/>
     <use xlink:href="#m102d002fa1" x="59.526779" y="133.446695" style="fill: #008033; stroke: #008033"/>
     <use xlink:href="#m102d002fa1" x="69.986237" y="106.618429" style="fill: #008033; stroke: #008033"/>
     <use xlink:href="#m102d002fa1" x="80.445694" y="82.701486" style="fill: #008033; stroke: #008033"/>
     <use xlink:href="#m102d002fa1" x="90.905152" y="65.932735" style="fill: #008033; stroke: #008033"/>
     <use xlink:href="#m102d002fa1" x="101.364609" y="55.164485" style="fill: #008033; stroke: #008033"/>
     <use xlink:href="#m102d002fa1" x="111.824066" y="52.520839" style="fill: #008033; stroke: #008033"/>
     <use xlink:href="#m102d002fa1" x="122.283524" y="60.373889" style="fill: #008033; stroke: #008033"/>
     <use xlink:href="#m102d002fa1" x="132.742981" y="48.850933" style="fill: #008033; stroke: #008033"/>
     <use xlink:href="#m102d002fa1" x="143.202439" y="65.265671" style="fill: #008033; stroke: #008033"/>
     <use xlink:href="#m102d002fa1" x="153.661896" y="87.30726" style="fill: #008033; stroke: #008033"/>
     <use xlink:href="#m102d002fa1" x="164.121353" y="102.30091" style="fill: #008033; stroke: #008033"/>
     <use xlink:href="#m102d002fa1" x="174.580811" y="108.552391" style="fill: #008033; stroke: #008033"/>
     <use xlink:href="#m102d002fa1" x="185.040268" y="120.88983" style="fill: #008033; stroke: #008033"/>
     <use xlink:href="#m102d002fa1" x="195.499726" y="112.442736" style="fill: #008033; stroke: #008033"/>
     <use xlink:href="#m102d002fa1" x="205.959183" y="114.27816" style="fill: #008033; stroke: #008033"/>
     <use xlink:href="#m102d002fa1" x="216.418641" y="120.999631" style="fill: #008033; stroke: #008033"/>
     <use xlink:href="#m102d002fa1" x="226.878098" y="128.571847" style="fill: #008033; stroke: #008033"/>
     <use xlink:href="#m102d002fa1" x="237.337555" y="137.47571" style="fill: #008033; stroke: #008033"/>
    </g>
   </g>
   <g id="LineCollection_3">
    <path d="M 48.962727 153.204023 
L 49.171916 153.204023 
" clip-path="url(#pb10b341acd)" style="fill: none; stroke: #008033; stroke-width: 0.5"/>
    <path d="M 58.977727 133.446695 
L 60.075832 133.446695 
" clip-path="url(#pb10b341acd)" style="fill: none; stroke: #008033; stroke-width: 0.5"/>
    <path d="M 69.437184 106.618429 
L 70.535289 106.618429 
" clip-path="url(#pb10b341acd)" style="fill: none; stroke: #008033; stroke-width: 0.5"/>
    <path d="M 79.896642 82.701486 
L 80.994746 82.701486 
" clip-path="url(#pb10b341acd)" style="fill: none; stroke: #008033; stroke-width: 0.5"/>
    <path d="M 90.356099 65.932735 
L 91.454204 65.932735 
" clip-path="url(#pb10b341acd)" style="fill: none; stroke: #008033; stroke-width: 0.5"/>
    <path d="M 100.815557 55.164485 
L 101.913661 55.164485 
" clip-path="url(#pb10b341acd)" style="fill: none; stroke: #008033; stroke-width: 0.5"/>
    <path d="M 111.275014 52.520839 
L 112.373119 52.520839 
" clip-path="url(#pb10b341acd)" style="fill: none; stroke: #008033; stroke-width: 0.5"/>
    <path d="M 121.734471 60.373889 
L 122.832576 60.373889 
" clip-path="url(#pb10b341acd)" style="fill: none; stroke: #008033; stroke-width: 0.5"/>
    <path d="M 132.193929 48.850933 
L 133.292034 48.850933 
" clip-path="url(#pb10b341acd)" style="fill: none; stroke: #008033; stroke-width: 0.5"/>
    <path d="M 142.653386 65.265671 
L 143.751491 65.265671 
" clip-path="url(#pb10b341acd)" style="fill: none; stroke: #008033; stroke-width: 0.5"/>
    <path d="M 153.112844 87.30726 
L 154.210948 87.30726 
" clip-path="url(#pb10b341acd)" style="fill: none; stroke: #008033; stroke-width: 0.5"/>
    <path d="M 163.572301 102.30091 
L 164.670406 102.30091 
" clip-path="url(#pb10b341acd)" style="fill: none; stroke: #008033; stroke-width: 0.5"/>
    <path d="M 174.031759 108.552391 
L 175.129863 108.552391 
" clip-path="url(#pb10b341acd)" style="fill: none; stroke: #008033; stroke-width: 0.5"/>
    <path d="M 184.491216 120.88983 
L 185.589321 120.88983 
" clip-path="url(#pb10b341acd)" style="fill: none; stroke: #008033; stroke-width: 0.5"/>
    <path d="M 194.950673 112.442736 
L 196.048778 112.442736 
" clip-path="url(#pb10b341acd)" style="fill: none; stroke: #008033; stroke-width: 0.5"/>
    <path d="M 205.410131 114.27816 
L 206.508235 114.27816 
" clip-path="url(#pb10b341acd)" style="fill: none; stroke: #008033; stroke-width: 0.5"/>
    <path d="M 215.869588 120.999631 
L 216.967693 120.999631 
" clip-path="url(#pb10b341acd)" style="fill: none; stroke: #008033; stroke-width: 0.5"/>
    <path d="M 226.329046 128.571847 
L 227.42715 128.571847 
" clip-path="url(#pb10b341acd)" style="fill: none; stroke: #008033; stroke-width: 0.5"/>
    <path d="M 237.337555 137.47571 
L 237.337555 137.47571 
" clip-path="url(#pb10b341acd)" style="fill: none; stroke: #008033; stroke-width: 0.5"/>
   </g>
   <g id="LineCollection_4">
    <path d="M 49.067322 153.873538 
L 49.067322 152.534508 
" clip-path="url(#pb10b341acd)" style="fill: none; stroke: #008033; stroke-width: 0.5"/>
    <path d="M 59.526779 136.00118 
L 59.526779 130.89221 
" clip-path="url(#pb10b341acd)" style="fill: none; stroke: #008033; stroke-width: 0.5"/>
    <path d="M 69.986237 108.500267 
L 69.986237 104.736591 
" clip-path="url(#pb10b341acd)" style="fill: none; stroke: #008033; stroke-width: 0.5"/>
    <path d="M 80.445694 86.177903 
L 80.445694 79.22507 
" clip-path="url(#pb10b341acd)" style="fill: none; stroke: #008033; stroke-width: 0.5"/>
    <path d="M 90.905152 68.308434 
L 90.905152 63.557035 
" clip-path="url(#pb10b341acd)" style="fill: none; stroke: #008033; stroke-width: 0.5"/>
    <path d="M 101.364609 59.327193 
L 101.364609 51.001777 
" clip-path="url(#pb10b341acd)" style="fill: none; stroke: #008033; stroke-width: 0.5"/>
    <path d="M 111.824066 59.036223 
L 111.824066 46.005455 
" clip-path="url(#pb10b341acd)" style="fill: none; stroke: #008033; stroke-width: 0.5"/>
    <path d="M 122.283524 64.384124 
L 122.283524 56.363654 
" clip-path="url(#pb10b341acd)" style="fill: none; stroke: #008033; stroke-width: 0.5"/>
    <path d="M 132.742981 51.059199 
L 132.742981 46.642666 
" clip-path="url(#pb10b341acd)" style="fill: none; stroke: #008033; stroke-width: 0.5"/>
    <path d="M 143.202439 66.06536 
L 143.202439 64.465983 
" clip-path="url(#pb10b341acd)" style="fill: none; stroke: #008033; stroke-width: 0.5"/>
    <path d="M 153.661896 93.274793 
L 153.661896 81.339726 
" clip-path="url(#pb10b341acd)" style="fill: none; stroke: #008033; stroke-width: 0.5"/>
    <path d="M 164.121353 105.338283 
L 164.121353 99.263536 
" clip-path="url(#pb10b341acd)" style="fill: none; stroke: #008033; stroke-width: 0.5"/>
    <path d="M 174.580811 112.11683 
L 174.580811 104.987951 
" clip-path="url(#pb10b341acd)" style="fill: none; stroke: #008033; stroke-width: 0.5"/>
    <path d="M 185.040268 124.621364 
L 185.040268 117.158296 
" clip-path="url(#pb10b341acd)" style="fill: none; stroke: #008033; stroke-width: 0.5"/>
    <path d="M 195.499726 113.96887 
L 195.499726 110.916602 
" clip-path="url(#pb10b341acd)" style="fill: none; stroke: #008033; stroke-width: 0.5"/>
    <path d="M 205.959183 120.320355 
L 205.959183 108.235966 
" clip-path="url(#pb10b341acd)" style="fill: none; stroke: #008033; stroke-width: 0.5"/>
    <path d="M 216.418641 123.467188 
L 216.418641 118.532074 
" clip-path="url(#pb10b341acd)" style="fill: none; stroke: #008033; stroke-width: 0.5"/>
    <path d="M 226.878098 131.905015 
L 226.878098 125.238679 
" clip-path="url(#pb10b341acd)" style="fill: none; stroke: #008033; stroke-width: 0.5"/>
    <path d="M 237.337555 137.47571 
L 237.337555 137.47571 
" clip-path="url(#pb10b341acd)" style="fill: none; stroke: #008033; stroke-width: 0.5"/>
   </g>
   <g id="line2d_25">
    <path d="M 49.067322 164.163138 
L 59.526779 158.632826 
L 69.986237 153.816731 
L 80.445694 148.90738 
L 90.905152 104.540975 
L 101.364609 97.038875 
L 111.824066 94.918161 
L 122.283524 93.013738 
L 132.742981 73.539087 
L 143.202439 85.031435 
L 153.661896 104.799807 
L 164.121353 111.372866 
L 174.580811 131.117276 
L 185.040268 133.348672 
L 195.499726 124.226445 
L 205.959183 136.614436 
L 216.418641 130.239036 
L 226.878098 126.287341 
L 237.337555 140.45911 
L 247.797013 121.676219 
L 258.25647 101.251922 
L 268.715928 143.129857 
L 279.175385 120.422687 
L 289.634842 128.797345 
L 300.0943 144.339384 
" clip-path="url(#pb10b341acd)" style="fill: none; stroke: #003380; stroke-width: 1.5; stroke-linecap: square"/>
   </g>
   <g id="line2d_26">
    <path d="M 49.067322 153.204023 
L 59.526779 133.446695 
L 69.986237 106.618429 
L 80.445694 82.701486 
L 90.905152 65.932735 
L 101.364609 55.164485 
L 111.824066 52.520839 
L 122.283524 60.373889 
L 132.742981 48.850933 
L 143.202439 65.265671 
L 153.661896 87.30726 
L 164.121353 102.30091 
L 174.580811 108.552391 
L 185.040268 120.88983 
L 195.499726 112.442736 
L 205.959183 114.27816 
L 216.418641 120.999631 
L 226.878098 128.571847 
L 237.337555 137.47571 
" clip-path="url(#pb10b341acd)" style="fill: none; stroke: #008033; stroke-width: 1.5; stroke-linecap: square"/>
   </g>
   <g id="patch_3">
    <path d="M 36.38 175.48 
L 36.38 39.84 
" style="fill: none; stroke: #000000; stroke-width: 0.8; stroke-linejoin: miter; stroke-linecap: square"/>
   </g>
   <g id="patch_4">
    <path d="M 313.2 175.48 
L 313.2 39.84 
" style="fill: none; stroke: #000000; stroke-width: 0.8; stroke-linejoin: miter; stroke-linecap: square"/>
   </g>
   <g id="patch_5">
    <path d="M 36.38 175.48 
L 313.2 175.48 
" style="fill: none; stroke: #000000; stroke-width: 0.8; stroke-linejoin: miter; stroke-linecap: square"/>
   </g>
   <g id="patch_6">
    <path d="M 36.38 39.84 
L 313.2 39.84 
" style="fill: none; stroke: #000000; stroke-width: 0.8; stroke-linejoin: miter; stroke-linecap: square"/>
   </g>
   <g id="text_14">
    <!-- Second Harmonic Conversion Efficiency -->
    <g transform="translate(77.709063 21.213) scale(0.12 -0.12)">
     <defs>
      <path id="AptosDisplay-53" d="M 1778 -56 
Q 1328 -56 962 81 
Q 597 219 384 512 
Q 172 806 172 1275 
L 734 1275 
Q 738 941 883 750 
Q 1028 559 1267 481 
Q 1506 403 1794 403 
Q 2063 403 2283 483 
Q 2503 563 2634 723 
Q 2766 884 2766 1134 
Q 2766 1356 2662 1497 
Q 2559 1638 2321 1742 
Q 2084 1847 1678 1950 
Q 1203 2075 897 2223 
Q 591 2372 442 2594 
Q 294 2816 294 3156 
Q 294 3516 462 3761 
Q 631 4006 945 4134 
Q 1259 4263 1697 4263 
Q 2103 4263 2440 4131 
Q 2778 4000 2979 3737 
Q 3181 3475 3181 3084 
L 2616 3084 
Q 2622 3441 2356 3623 
Q 2091 3806 1700 3806 
Q 1300 3806 1073 3645 
Q 847 3484 847 3175 
Q 847 2991 944 2867 
Q 1041 2744 1280 2644 
Q 1519 2544 1941 2434 
Q 2428 2303 2731 2153 
Q 3034 2003 3178 1768 
Q 3322 1534 3322 1153 
Q 3322 747 3117 480 
Q 2913 213 2564 78 
Q 2216 -56 1778 -56 
z
" transform="scale(0.015625)"/>
     </defs>
     <use xlink:href="#AptosDisplay-53"/>
     <use xlink:href="#AptosDisplay-65" x="54.589844"/>
     <use xlink:href="#AptosDisplay-63" x="104.003906"/>
     <use xlink:href="#AptosDisplay-6f" x="153.271484"/>
     <use xlink:href="#AptosDisplay-6e" x="204.541016"/>
     <use xlink:href="#AptosDisplay-64" x="255.126953"/>
     <use xlink:href="#AptosDisplay-20" x="306.982422"/>
     <use xlink:href="#AptosDisplay-48" x="326.269531"/>
     <use xlink:href="#AptosDisplay-61" x="392.431641"/>
     <use xlink:href="#AptosDisplay-72" x="441.357422"/>
     <use xlink:href="#AptosDisplay-6d" x="472.363281"/>
     <use xlink:href="#AptosDisplay-6f" x="552.34375"/>
     <use xlink:href="#AptosDisplay-6e" x="603.613281"/>
     <use xlink:href="#AptosDisplay-69" x="654.199219"/>
     <use xlink:href="#AptosDisplay-63" x="675.244141"/>
     <use xlink:href="#AptosDisplay-20" x="724.511719"/>
     <use xlink:href="#AptosDisplay-43" x="743.798828"/>
     <use xlink:href="#AptosDisplay-6f" x="809.375"/>
     <use xlink:href="#AptosDisplay-6e" x="860.644531"/>
     <use xlink:href="#AptosDisplay-76" x="911.230469"/>
     <use xlink:href="#AptosDisplay-65" x="954.492188"/>
     <use xlink:href="#AptosDisplay-72" x="1003.90625"/>
     <use xlink:href="#AptosDisplay-73" x="1034.912109"/>
     <use xlink:href="#AptosDisplay-69" x="1081.201172"/>
     <use xlink:href="#AptosDisplay-6f" x="1102.246094"/>
     <use xlink:href="#AptosDisplay-6e" x="1153.515625"/>
     <use xlink:href="#AptosDisplay-20" x="1204.101562"/>
     <use xlink:href="#AptosDisplay-45" x="1223.388672"/>
     <use xlink:href="#AptosDisplay-66" x="1277.441406"/>
     <use xlink:href="#AptosDisplay-66" x="1305.761719"/>
     <use xlink:href="#AptosDisplay-69" x="1334.082031"/>
     <use xlink:href="#AptosDisplay-63" x="1355.126953"/>
     <use xlink:href="#AptosDisplay-69" x="1404.394531"/>
     <use xlink:href="#AptosDisplay-65" x="1425.439453"/>
     <use xlink:href="#AptosDisplay-6e" x="1474.853516"/>
     <use xlink:href="#AptosDisplay-63" x="1525.439453"/>
     <use xlink:href="#AptosDisplay-79" x="1574.707031"/>
    </g>
    <!-- $P_{RF}$ = -25 dBm, $I_{dc}$ = 700 $\mu$A -->
    <g transform="translate(106.39 33.84) scale(0.12 -0.12)">
     <defs>
      <path id="DejaVuSans-Oblique-50" d="M 1081 4666 
L 2541 4666 
Q 3178 4666 3512 4369 
Q 3847 4072 3847 3500 
Q 3847 2731 3353 2303 
Q 2859 1875 1966 1875 
L 1172 1875 
L 806 0 
L 172 0 
L 1081 4666 
z
M 1613 4147 
L 1275 2394 
L 2069 2394 
Q 2606 2394 2893 2669 
Q 3181 2944 3181 3456 
Q 3181 3784 2986 3965 
Q 2791 4147 2438 4147 
L 1613 4147 
z
" transform="scale(0.015625)"/>
      <path id="DejaVuSans-Oblique-52" d="M 1613 4147 
L 1294 2491 
L 2106 2491 
Q 2584 2491 2879 2755 
Q 3175 3019 3175 3444 
Q 3175 3784 2976 3965 
Q 2778 4147 2406 4147 
L 1613 4147 
z
M 2772 2241 
Q 2972 2194 3105 2009 
Q 3238 1825 3413 1275 
L 3809 0 
L 3144 0 
L 2778 1197 
Q 2638 1659 2453 1815 
Q 2269 1972 1888 1972 
L 1191 1972 
L 806 0 
L 172 0 
L 1081 4666 
L 2503 4666 
Q 3150 4666 3495 4373 
Q 3841 4081 3841 3531 
Q 3841 3044 3547 2687 
Q 3253 2331 2772 2241 
z
" transform="scale(0.015625)"/>
      <path id="DejaVuSans-Oblique-46" d="M 1081 4666 
L 3756 4666 
L 3653 4134 
L 1606 4134 
L 1338 2759 
L 3188 2759 
L 3084 2228 
L 1234 2228 
L 800 0 
L 172 0 
L 1081 4666 
z
" transform="scale(0.015625)"/>
      <path id="AptosDisplay-3d" d="M 319 1344 
L 319 1803 
L 3022 1803 
L 3022 1344 
L 319 1344 
z
M 319 2391 
L 319 2844 
L 3022 2844 
L 3022 2391 
L 319 2391 
z
" transform="scale(0.015625)"/>
      <path id="AptosDisplay-2d" d="M 334 1463 
L 334 1925 
L 1894 1925 
L 1894 1463 
L 334 1463 
z
" transform="scale(0.015625)"/>
      <path id="AptosDisplay-42" d="M 472 0 
L 472 4206 
L 1822 4206 
Q 2456 4206 2834 3950 
Q 3213 3694 3213 3169 
Q 3213 2838 3028 2578 
Q 2844 2319 2538 2241 
Q 2975 2169 3234 1892 
Q 3494 1616 3494 1209 
Q 3494 828 3323 558 
Q 3153 288 2812 144 
Q 2472 0 1956 0 
L 472 0 
z
M 1034 469 
L 1944 469 
Q 2213 469 2438 536 
Q 2663 603 2798 773 
Q 2934 944 2934 1244 
Q 2934 1606 2670 1784 
Q 2406 1963 1944 1963 
L 1034 1963 
L 1034 469 
z
M 1034 2419 
L 1819 2419 
Q 2225 2419 2439 2605 
Q 2653 2791 2653 3106 
Q 2653 3319 2556 3461 
Q 2459 3603 2271 3673 
Q 2084 3744 1819 3744 
L 1034 3744 
L 1034 2419 
z
" transform="scale(0.015625)"/>
      <path id="AptosDisplay-2c" d="M 366 -869 
L 234 -575 
Q 416 -494 553 -347 
Q 691 -200 719 0 
L 753 -31 
Q 578 -31 464 83 
Q 350 197 350 363 
Q 350 534 464 645 
Q 578 756 753 756 
Q 925 756 1037 634 
Q 1150 513 1150 259 
Q 1150 -38 1045 -255 
Q 941 -472 764 -622 
Q 588 -772 366 -869 
z
" transform="scale(0.015625)"/>
      <path id="DejaVuSans-Oblique-49" d="M 1081 4666 
L 1716 4666 
L 806 0 
L 172 0 
L 1081 4666 
z
" transform="scale(0.015625)"/>
      <path id="DejaVuSans-Oblique-64" d="M 2675 525 
Q 2444 222 2128 65 
Q 1813 -91 1428 -91 
Q 903 -91 598 267 
Q 294 625 294 1247 
Q 294 1766 478 2236 
Q 663 2706 1013 3078 
Q 1244 3325 1534 3454 
Q 1825 3584 2144 3584 
Q 2481 3584 2739 3421 
Q 2997 3259 3138 2956 
L 3513 4863 
L 4091 4863 
L 3144 0 
L 2566 0 
L 2675 525 
z
M 891 1350 
Q 891 897 1095 644 
Q 1300 391 1663 391 
Q 1931 391 2161 520 
Q 2391 650 2566 903 
Q 2750 1166 2856 1509 
Q 2963 1853 2963 2188 
Q 2963 2622 2758 2865 
Q 2553 3109 2194 3109 
Q 1922 3109 1687 2981 
Q 1453 2853 1288 2613 
Q 1106 2353 998 2009 
Q 891 1666 891 1350 
z
" transform="scale(0.015625)"/>
      <path id="DejaVuSans-Oblique-63" d="M 3431 3366 
L 3316 2797 
Q 3109 2947 2876 3022 
Q 2644 3097 2394 3097 
Q 2119 3097 1870 3000 
Q 1622 2903 1453 2725 
Q 1184 2453 1037 2087 
Q 891 1722 891 1331 
Q 891 859 1127 628 
Q 1363 397 1844 397 
Q 2081 397 2348 469 
Q 2616 541 2906 684 
L 2797 116 
Q 2547 13 2283 -39 
Q 2019 -91 1741 -91 
Q 1044 -91 669 257 
Q 294 606 294 1253 
Q 294 1797 489 2255 
Q 684 2713 1069 3078 
Q 1331 3328 1684 3456 
Q 2038 3584 2456 3584 
Q 2700 3584 2940 3529 
Q 3181 3475 3431 3366 
z
" transform="scale(0.015625)"/>
      <path id="AptosDisplay-37" d="M 766 0 
L 2609 3600 
L 194 3600 
L 194 4078 
L 3141 4078 
L 3141 3622 
L 1334 0 
L 766 0 
z
" transform="scale(0.015625)"/>
      <path id="DejaVuSans-Oblique-3bc" d="M -84 -1331 
L 856 3500 
L 1434 3500 
L 1009 1322 
Q 997 1256 987 1175 
Q 978 1094 978 1013 
Q 978 722 1161 565 
Q 1344 409 1684 409 
Q 2147 409 2431 671 
Q 2716 934 2816 1459 
L 3213 3500 
L 3788 3500 
L 3266 809 
Q 3253 750 3248 706 
Q 3244 663 3244 628 
Q 3244 531 3283 486 
Q 3322 441 3406 441 
Q 3438 441 3492 456 
Q 3547 472 3647 513 
L 3559 50 
Q 3422 -19 3297 -55 
Q 3172 -91 3053 -91 
Q 2847 -91 2730 40 
Q 2613 172 2613 403 
Q 2438 153 2195 31 
Q 1953 -91 1625 -91 
Q 1334 -91 1117 43 
Q 900 178 831 397 
L 494 -1331 
L -84 -1331 
z
" transform="scale(0.015625)"/>
      <path id="AptosDisplay-41" d="M -6 0 
L 1569 4206 
L 2159 4206 
L 3719 0 
L 3134 0 
L 2738 1178 
L 988 1178 
L 572 0 
L -6 0 
z
M 1141 1650 
L 2572 1650 
L 1863 3647 
L 1141 1650 
z
" transform="scale(0.015625)"/>
     </defs>
     <use xlink:href="#DejaVuSans-Oblique-50" transform="translate(0 0.09375)"/>
     <use xlink:href="#DejaVuSans-Oblique-52" transform="translate(60.302734 -16.3125) scale(0.7)"/>
     <use xlink:href="#DejaVuSans-Oblique-46" transform="translate(108.94043 -16.3125) scale(0.7)"/>
     <use xlink:href="#AptosDisplay-20" transform="translate(151.938477 0.09375)"/>
     <use xlink:href="#AptosDisplay-3d" transform="translate(171.225586 0.09375)"/>
     <use xlink:href="#AptosDisplay-20" transform="translate(223.520508 0.09375)"/>
     <use xlink:href="#AptosDisplay-2d" transform="translate(242.807617 0.09375)"/>
     <use xlink:href="#AptosDisplay-32" transform="translate(277.670898 0.09375)"/>
     <use xlink:href="#AptosDisplay-35" transform="translate(329.96582 0.09375)"/>
     <use xlink:href="#AptosDisplay-20" transform="translate(382.260742 0.09375)"/>
     <use xlink:href="#AptosDisplay-64" transform="translate(401.547852 0.09375)"/>
     <use xlink:href="#AptosDisplay-42" transform="translate(453.40332 0.09375)"/>
     <use xlink:href="#AptosDisplay-6d" transform="translate(511.655273 0.09375)"/>
     <use xlink:href="#AptosDisplay-2c" transform="translate(591.635742 0.09375)"/>
     <use xlink:href="#AptosDisplay-20" transform="translate(616.245117 0.09375)"/>
     <use xlink:href="#DejaVuSans-Oblique-49" transform="translate(635.532227 0.09375)"/>
     <use xlink:href="#DejaVuSans-Oblique-64" transform="translate(665.024414 -16.3125) scale(0.7)"/>
     <use xlink:href="#DejaVuSans-Oblique-63" transform="translate(709.458008 -16.3125) scale(0.7)"/>
     <use xlink:href="#AptosDisplay-20" transform="translate(750.678711 0.09375)"/>
     <use xlink:href="#AptosDisplay-3d" transform="translate(769.96582 0.09375)"/>
     <use xlink:href="#AptosDisplay-20" transform="translate(822.260742 0.09375)"/>
     <use xlink:href="#AptosDisplay-37" transform="translate(841.547852 0.09375)"/>
     <use xlink:href="#AptosDisplay-30" transform="translate(893.842773 0.09375)"/>
     <use xlink:href="#AptosDisplay-30" transform="translate(946.137695 0.09375)"/>
     <use xlink:href="#AptosDisplay-20" transform="translate(998.432617 0.09375)"/>
     <use xlink:href="#DejaVuSans-Oblique-3bc" transform="translate(1017.719727 0.09375)"/>
     <use xlink:href="#AptosDisplay-41" transform="translate(1081.342773 0.09375)"/>
    </g>
   </g>
   <g id="legend_1">
    <g id="patch_7">
     <path d="M 214.8 76.04 
L 306.2 76.04 
Q 308.2 76.04 308.2 74.04 
L 308.2 46.84 
Q 308.2 44.84 306.2 44.84 
L 214.8 44.84 
Q 212.8 44.84 212.8 46.84 
L 212.8 74.04 
Q 212.8 76.04 214.8 76.04 
z
" style="fill: #ffffff; opacity: 0.8; stroke: #cccccc; stroke-linejoin: miter"/>
    </g>
    <g id="line2d_27">
     <path d="M 216.8 52.34 
L 226.8 52.34 
L 236.8 52.34 
" style="fill: none; stroke-dasharray: 1.5,2.475; stroke-dashoffset: 0; stroke: #003380; stroke-width: 1.5"/>
     <g>
      <use xlink:href="#mac2e188120" x="226.8" y="52.34" style="fill: #003380; stroke: #003380"/>
     </g>
    </g>
    <g id="text_15">
     <!-- 4.4 $\mu m$ device -->
     <g transform="translate(244.8 55.84) scale(0.1 -0.1)">
      <defs>
       <path id="AptosDisplay-2e" d="M 794 -31 
Q 619 -31 503 83 
Q 388 197 388 363 
Q 388 534 503 645 
Q 619 756 794 756 
Q 963 756 1077 645 
Q 1191 534 1191 363 
Q 1191 197 1077 83 
Q 963 -31 794 -31 
z
" transform="scale(0.015625)"/>
       <path id="DejaVuSans-Oblique-6d" d="M 5747 2113 
L 5338 0 
L 4763 0 
L 5166 2094 
Q 5191 2228 5203 2325 
Q 5216 2422 5216 2491 
Q 5216 2772 5059 2928 
Q 4903 3084 4622 3084 
Q 4203 3084 3875 2770 
Q 3547 2456 3450 1953 
L 3066 0 
L 2491 0 
L 2900 2094 
Q 2925 2209 2937 2307 
Q 2950 2406 2950 2484 
Q 2950 2769 2794 2926 
Q 2638 3084 2363 3084 
Q 1938 3084 1609 2770 
Q 1281 2456 1184 1953 
L 800 0 
L 225 0 
L 909 3500 
L 1484 3500 
L 1375 2956 
Q 1609 3263 1923 3423 
Q 2238 3584 2597 3584 
Q 2978 3584 3223 3384 
Q 3469 3184 3519 2828 
Q 3781 3197 4126 3390 
Q 4472 3584 4856 3584 
Q 5306 3584 5551 3325 
Q 5797 3066 5797 2591 
Q 5797 2488 5784 2364 
Q 5772 2241 5747 2113 
z
" transform="scale(0.015625)"/>
      </defs>
      <use xlink:href="#AptosDisplay-34" transform="translate(0 0.03125)"/>
      <use xlink:href="#AptosDisplay-2e" transform="translate(52.294922 0.03125)"/>
      <use xlink:href="#AptosDisplay-34" transform="translate(76.904297 0.03125)"/>
      <use xlink:href="#AptosDisplay-20" transform="translate(129.199219 0.03125)"/>
      <use xlink:href="#DejaVuSans-Oblique-3bc" transform="translate(148.486328 0.03125)"/>
      <use xlink:href="#DejaVuSans-Oblique-6d" transform="translate(212.109375 0.03125)"/>
      <use xlink:href="#AptosDisplay-20" transform="translate(309.521484 0.03125)"/>
      <use xlink:href="#AptosDisplay-64" transform="translate(328.808594 0.03125)"/>
      <use xlink:href="#AptosDisplay-65" transform="translate(380.664062 0.03125)"/>
      <use xlink:href="#AptosDisplay-76" transform="translate(430.078125 0.03125)"/>
      <use xlink:href="#AptosDisplay-69" transform="translate(473.339844 0.03125)"/>
      <use xlink:href="#AptosDisplay-63" transform="translate(494.384766 0.03125)"/>
      <use xlink:href="#AptosDisplay-65" transform="translate(543.652344 0.03125)"/>
     </g>
    </g>
    <g id="line2d_28">
     <path d="M 216.8 66.44 
L 226.8 66.44 
L 236.8 66.44 
" style="fill: none; stroke-dasharray: 1.5,2.475; stroke-dashoffset: 0; stroke: #008033; stroke-width: 1.5"/>
     <g>
      <use xlink:href="#m102d002fa1" x="226.8" y="66.44" style="fill: #008033; stroke: #008033"/>
     </g>
    </g>
    <g id="text_16">
     <!-- 3.7 $\mu m$ device -->
     <g transform="translate(244.8 69.94) scale(0.1 -0.1)">
      <defs>
       <path id="AptosDisplay-33" d="M 1700 -56 
Q 1047 -56 655 275 
Q 263 606 263 1225 
L 781 1225 
Q 781 844 1023 617 
Q 1266 391 1697 391 
Q 2094 391 2322 581 
Q 2550 772 2550 1172 
Q 2550 1556 2297 1737 
Q 2044 1919 1609 1919 
L 1366 1919 
L 1366 2363 
L 1622 2363 
Q 2013 2363 2222 2555 
Q 2431 2747 2431 3066 
Q 2431 3372 2226 3526 
Q 2022 3681 1684 3681 
Q 1306 3681 1095 3481 
Q 884 3281 891 2956 
L 372 2956 
Q 372 3319 536 3583 
Q 700 3847 995 3990 
Q 1291 4134 1681 4134 
Q 2031 4134 2318 4017 
Q 2606 3900 2778 3670 
Q 2950 3441 2950 3097 
Q 2950 2738 2745 2498 
Q 2541 2259 2206 2166 
Q 2591 2097 2841 1836 
Q 3091 1575 3091 1150 
Q 3091 763 2916 494 
Q 2741 225 2428 84 
Q 2116 -56 1700 -56 
z
" transform="scale(0.015625)"/>
      </defs>
      <use xlink:href="#AptosDisplay-33" transform="translate(0 0.03125)"/>
      <use xlink:href="#AptosDisplay-2e" transform="translate(52.294922 0.03125)"/>
      <use xlink:href="#AptosDisplay-37" transform="translate(76.904297 0.03125)"/>
      <use xlink:href="#AptosDisplay-20" transform="translate(129.199219 0.03125)"/>
      <use xlink:href="#DejaVuSans-Oblique-3bc" transform="translate(148.486328 0.03125)"/>
      <use xlink:href="#DejaVuSans-Oblique-6d" transform="translate(212.109375 0.03125)"/>
      <use xlink:href="#AptosDisplay-20" transform="translate(309.521484 0.03125)"/>
      <use xlink:href="#AptosDisplay-64" transform="translate(328.808594 0.03125)"/>
      <use xlink:href="#AptosDisplay-65" transform="translate(380.664062 0.03125)"/>
      <use xlink:href="#AptosDisplay-76" transform="translate(430.078125 0.03125)"/>
      <use xlink:href="#AptosDisplay-69" transform="translate(473.339844 0.03125)"/>
      <use xlink:href="#AptosDisplay-63" transform="translate(494.384766 0.03125)"/>
      <use xlink:href="#AptosDisplay-65" transform="translate(543.652344 0.03125)"/>
     </g>
    </g>
   </g>
  </g>
 </g>
 <defs>
  <clipPath id="pb10b341acd">
   <rect x="36.38" y="39.84" width="276.82" height="135.64"/>
  </clipPath>
 </defs>
</svg>
