<?xml version="1.0" encoding="utf-8" standalone="no"?>
<!DOCTYPE svg PUBLIC "-//W3C//DTD SVG 1.1//EN"
  "http://www.w3.org/Graphics/SVG/1.1/DTD/svg11.dtd">
<svg xmlns:xlink="http://www.w3.org/1999/xlink" width="324pt" height="216pt" viewBox="0 0 324 216" xmlns="http://www.w3.org/2000/svg" version="1.1">
 <metadata>
  <rdf:RDF xmlns:dc="http://purl.org/dc/elements/1.1/" xmlns:cc="http://creativecommons.org/ns#" xmlns:rdf="http://www.w3.org/1999/02/22-rdf-syntax-ns#">
   <cc:Work>
    <dc:type rdf:resource="http://purl.org/dc/dcmitype/StillImage"/>
    <dc:date>2024-10-05T16:40:12.006582</dc:date>
    <dc:format>image/svg+xml</dc:format>
    <dc:creator>
     <cc:Agent>
      <dc:title>Matplotlib v3.9.1, https://matplotlib.org/</dc:title>
     </cc:Agent>
    </dc:creator>
   </cc:Work>
  </rdf:RDF>
 </metadata>
 <defs>
  <style type="text/css">*{stroke-linejoin: round; stroke-linecap: butt}</style>
 </defs>
 <g id="figure_1">
  <g id="patch_1">
   <path d="M 0 216 
L 324 216 
L 324 0 
L 0 0 
z
" style="fill: #ffffff"/>
  </g>
  <g id="axes_1">
   <g id="patch_2">
    <path d="M 42.14 171.88 
L 313.2 171.88 
L 313.2 10.8 
L 42.14 10.8 
z
" style="fill: #ffffff"/>
   </g>
   <g id="patch_3">
    <path d="M 54.460909 171.88 
L 70.888788 171.88 
L 70.888788 18.470476 
L 54.460909 18.470476 
z
" clip-path="url(#p93b23e02f9)" style="fill: #1f77b4"/>
   </g>
   <g id="patch_4">
    <path d="M 70.888788 171.88 
L 87.316667 171.88 
L 87.316667 171.88 
L 70.888788 171.88 
z
" clip-path="url(#p93b23e02f9)" style="fill: #1f77b4"/>
   </g>
   <g id="patch_5">
    <path d="M 87.316667 171.88 
L 103.744545 171.88 
L 103.744545 169.962381 
L 87.316667 169.962381 
z
" clip-path="url(#p93b23e02f9)" style="fill: #1f77b4"/>
   </g>
   <g id="patch_6">
    <path d="M 103.744545 171.88 
L 120.172424 171.88 
L 120.172424 169.962381 
L 103.744545 169.962381 
z
" clip-path="url(#p93b23e02f9)" style="fill: #1f77b4"/>
   </g>
   <g id="patch_7">
    <path d="M 120.172424 171.88 
L 136.600303 171.88 
L 136.600303 169.962381 
L 120.172424 169.962381 
z
" clip-path="url(#p93b23e02f9)" style="fill: #1f77b4"/>
   </g>
   <g id="patch_8">
    <path d="M 136.600303 171.88 
L 153.028182 171.88 
L 153.028182 171.88 
L 136.600303 171.88 
z
" clip-path="url(#p93b23e02f9)" style="fill: #1f77b4"/>
   </g>
   <g id="patch_9">
    <path d="M 153.028182 171.88 
L 169.456061 171.88 
L 169.456061 171.88 
L 153.028182 171.88 
z
" clip-path="url(#p93b23e02f9)" style="fill: #1f77b4"/>
   </g>
   <g id="patch_10">
    <path d="M 169.456061 171.88 
L 185.883939 171.88 
L 185.883939 169.962381 
L 169.456061 169.962381 
z
" clip-path="url(#p93b23e02f9)" style="fill: #1f77b4"/>
   </g>
   <g id="patch_11">
    <path d="M 185.883939 171.88 
L 202.311818 171.88 
L 202.311818 169.962381 
L 185.883939 169.962381 
z
" clip-path="url(#p93b23e02f9)" style="fill: #1f77b4"/>
   </g>
   <g id="patch_12">
    <path d="M 202.311818 171.88 
L 218.739697 171.88 
L 218.739697 169.962381 
L 202.311818 169.962381 
z
" clip-path="url(#p93b23e02f9)" style="fill: #1f77b4"/>
   </g>
   <g id="patch_13">
    <path d="M 218.739697 171.88 
L 235.167576 171.88 
L 235.167576 171.88 
L 218.739697 171.88 
z
" clip-path="url(#p93b23e02f9)" style="fill: #1f77b4"/>
   </g>
   <g id="patch_14">
    <path d="M 235.167576 171.88 
L 251.595455 171.88 
L 251.595455 171.88 
L 235.167576 171.88 
z
" clip-path="url(#p93b23e02f9)" style="fill: #1f77b4"/>
   </g>
   <g id="patch_15">
    <path d="M 251.595455 171.88 
L 268.023333 171.88 
L 268.023333 171.88 
L 251.595455 171.88 
z
" clip-path="url(#p93b23e02f9)" style="fill: #1f77b4"/>
   </g>
   <g id="patch_16">
    <path d="M 268.023333 171.88 
L 284.451212 171.88 
L 284.451212 171.88 
L 268.023333 171.88 
z
" clip-path="url(#p93b23e02f9)" style="fill: #1f77b4"/>
   </g>
   <g id="patch_17">
    <path d="M 284.451212 171.88 
L 300.879091 171.88 
L 300.879091 168.044762 
L 284.451212 168.044762 
z
" clip-path="url(#p93b23e02f9)" style="fill: #1f77b4"/>
   </g>
   <g id="matplotlib.axis_1">
    <g id="xtick_1">
     <g id="line2d_1">
      <path d="M 51.302879 171.88 
L 51.302879 10.8 
" clip-path="url(#p93b23e02f9)" style="fill: none; stroke: #b0b0b0; stroke-width: 0.8; stroke-linecap: square"/>
     </g>
     <g id="line2d_2">
      <defs>
       <path id="mbb8033aae3" d="M 0 0 
L 0 3.5 
" style="stroke: #000000; stroke-width: 0.8"/>
      </defs>
      <g>
       <use xlink:href="#mbb8033aae3" x="51.302879" y="171.88" style="stroke: #000000; stroke-width: 0.8"/>
      </g>
     </g>
     <g id="text_1">
      <!-- 0 -->
      <g transform="translate(48.55366 185.78) scale(0.1 -0.1)">
       <defs>
        <path id="Consolas-30" d="M 3244 2041 
Q 3244 1572 3150 1186 
Q 3056 800 2865 523 
Q 2675 247 2392 95 
Q 2109 -56 1728 -56 
Q 1400 -56 1131 67 
Q 863 191 672 447 
Q 481 703 378 1100 
Q 275 1497 275 2041 
Q 275 2509 370 2896 
Q 466 3284 655 3561 
Q 844 3838 1128 3989 
Q 1413 4141 1791 4141 
Q 2119 4141 2387 4017 
Q 2656 3894 2847 3636 
Q 3038 3378 3141 2981 
Q 3244 2584 3244 2041 
z
M 2694 2022 
Q 2694 2128 2686 2233 
Q 2678 2338 2669 2438 
L 941 1153 
Q 988 991 1059 853 
Q 1131 716 1232 617 
Q 1334 519 1464 464 
Q 1594 409 1759 409 
Q 1972 409 2145 512 
Q 2319 616 2441 819 
Q 2563 1022 2628 1323 
Q 2694 1625 2694 2022 
z
M 825 2059 
Q 825 1963 826 1866 
Q 828 1769 838 1678 
L 2566 2956 
Q 2519 3116 2447 3247 
Q 2375 3378 2275 3473 
Q 2175 3569 2047 3622 
Q 1919 3675 1759 3675 
Q 1547 3675 1373 3572 
Q 1200 3469 1078 3264 
Q 956 3059 890 2757 
Q 825 2456 825 2059 
z
" transform="scale(0.015625)"/>
       </defs>
       <use xlink:href="#Consolas-30"/>
      </g>
     </g>
    </g>
    <g id="xtick_2">
     <g id="line2d_3">
      <path d="M 84.779628 171.88 
L 84.779628 10.8 
" clip-path="url(#p93b23e02f9)" style="fill: none; stroke: #b0b0b0; stroke-width: 0.8; stroke-linecap: square"/>
     </g>
     <g id="line2d_4">
      <g>
       <use xlink:href="#mbb8033aae3" x="84.779628" y="171.88" style="stroke: #000000; stroke-width: 0.8"/>
      </g>
     </g>
     <g id="text_2">
      <!-- 500 -->
      <g transform="translate(76.531972 185.78) scale(0.1 -0.1)">
       <defs>
        <path id="Consolas-35" d="M 3047 1306 
Q 3047 1003 2915 753 
Q 2784 503 2554 323 
Q 2325 144 2012 44 
Q 1700 -56 1338 -56 
Q 1247 -56 1142 -51 
Q 1038 -47 934 -39 
Q 831 -31 732 -22 
Q 634 -13 556 0 
L 556 494 
Q 725 453 942 434 
Q 1159 416 1381 416 
Q 1631 416 1831 475 
Q 2031 534 2172 645 
Q 2313 756 2388 914 
Q 2463 1072 2463 1269 
Q 2463 1650 2189 1823 
Q 1916 1997 1403 1997 
L 628 1997 
L 628 4084 
L 2828 4084 
L 2828 3609 
L 1141 3609 
L 1141 2463 
L 1497 2463 
Q 1791 2463 2069 2409 
Q 2347 2356 2564 2223 
Q 2781 2091 2914 1867 
Q 3047 1644 3047 1306 
z
" transform="scale(0.015625)"/>
       </defs>
       <use xlink:href="#Consolas-35"/>
       <use xlink:href="#Consolas-30" x="54.980469"/>
       <use xlink:href="#Consolas-30" x="109.960938"/>
      </g>
     </g>
    </g>
    <g id="xtick_3">
     <g id="line2d_5">
      <path d="M 118.256378 171.88 
L 118.256378 10.8 
" clip-path="url(#p93b23e02f9)" style="fill: none; stroke: #b0b0b0; stroke-width: 0.8; stroke-linecap: square"/>
     </g>
     <g id="line2d_6">
      <g>
       <use xlink:href="#mbb8033aae3" x="118.256378" y="171.88" style="stroke: #000000; stroke-width: 0.8"/>
      </g>
     </g>
     <g id="text_3">
      <!-- 1000 -->
      <g transform="translate(107.259503 185.78) scale(0.1 -0.1)">
       <defs>
        <path id="Consolas-31" d="M 3116 0 
L 550 0 
L 550 506 
L 1600 506 
L 1600 3488 
L 622 2956 
L 422 3419 
L 1722 4103 
L 2203 4103 
L 2203 506 
L 3116 506 
L 3116 0 
z
" transform="scale(0.015625)"/>
       </defs>
       <use xlink:href="#Consolas-31"/>
       <use xlink:href="#Consolas-30" x="54.980469"/>
       <use xlink:href="#Consolas-30" x="109.960938"/>
       <use xlink:href="#Consolas-30" x="164.941406"/>
      </g>
     </g>
    </g>
    <g id="xtick_4">
     <g id="line2d_7">
      <path d="M 151.733128 171.88 
L 151.733128 10.8 
" clip-path="url(#p93b23e02f9)" style="fill: none; stroke: #b0b0b0; stroke-width: 0.8; stroke-linecap: square"/>
     </g>
     <g id="line2d_8">
      <g>
       <use xlink:href="#mbb8033aae3" x="151.733128" y="171.88" style="stroke: #000000; stroke-width: 0.8"/>
      </g>
     </g>
     <g id="text_4">
      <!-- 1500 -->
      <g transform="translate(140.736253 185.78) scale(0.1 -0.1)">
       <use xlink:href="#Consolas-31"/>
       <use xlink:href="#Consolas-35" x="54.980469"/>
       <use xlink:href="#Consolas-30" x="109.960938"/>
       <use xlink:href="#Consolas-30" x="164.941406"/>
      </g>
     </g>
    </g>
    <g id="xtick_5">
     <g id="line2d_9">
      <path d="M 185.209877 171.88 
L 185.209877 10.8 
" clip-path="url(#p93b23e02f9)" style="fill: none; stroke: #b0b0b0; stroke-width: 0.8; stroke-linecap: square"/>
     </g>
     <g id="line2d_10">
      <g>
       <use xlink:href="#mbb8033aae3" x="185.209877" y="171.88" style="stroke: #000000; stroke-width: 0.8"/>
      </g>
     </g>
     <g id="text_5">
      <!-- 2000 -->
      <g transform="translate(174.213002 185.78) scale(0.1 -0.1)">
       <defs>
        <path id="Consolas-32" d="M 3150 0 
L 459 0 
L 459 488 
L 1516 1538 
Q 1775 1794 1937 1981 
Q 2100 2169 2190 2323 
Q 2281 2478 2312 2615 
Q 2344 2753 2344 2913 
Q 2344 3063 2303 3198 
Q 2263 3334 2178 3437 
Q 2094 3541 1959 3600 
Q 1825 3659 1638 3659 
Q 1378 3659 1165 3543 
Q 953 3428 775 3244 
L 475 3603 
Q 706 3847 1007 3994 
Q 1309 4141 1709 4141 
Q 1981 4141 2204 4059 
Q 2428 3978 2590 3825 
Q 2753 3672 2842 3450 
Q 2931 3228 2931 2950 
Q 2931 2716 2868 2516 
Q 2806 2316 2679 2117 
Q 2553 1919 2361 1706 
Q 2169 1494 1906 1241 
L 1166 519 
L 3150 519 
L 3150 0 
z
" transform="scale(0.015625)"/>
       </defs>
       <use xlink:href="#Consolas-32"/>
       <use xlink:href="#Consolas-30" x="54.980469"/>
       <use xlink:href="#Consolas-30" x="109.960938"/>
       <use xlink:href="#Consolas-30" x="164.941406"/>
      </g>
     </g>
    </g>
    <g id="xtick_6">
     <g id="line2d_11">
      <path d="M 218.686627 171.88 
L 218.686627 10.8 
" clip-path="url(#p93b23e02f9)" style="fill: none; stroke: #b0b0b0; stroke-width: 0.8; stroke-linecap: square"/>
     </g>
     <g id="line2d_12">
      <g>
       <use xlink:href="#mbb8033aae3" x="218.686627" y="171.88" style="stroke: #000000; stroke-width: 0.8"/>
      </g>
     </g>
     <g id="text_6">
      <!-- 2500 -->
      <g transform="translate(207.689752 185.78) scale(0.1 -0.1)">
       <use xlink:href="#Consolas-32"/>
       <use xlink:href="#Consolas-35" x="54.980469"/>
       <use xlink:href="#Consolas-30" x="109.960938"/>
       <use xlink:href="#Consolas-30" x="164.941406"/>
      </g>
     </g>
    </g>
    <g id="xtick_7">
     <g id="line2d_13">
      <path d="M 252.163376 171.88 
L 252.163376 10.8 
" clip-path="url(#p93b23e02f9)" style="fill: none; stroke: #b0b0b0; stroke-width: 0.8; stroke-linecap: square"/>
     </g>
     <g id="line2d_14">
      <g>
       <use xlink:href="#mbb8033aae3" x="252.163376" y="171.88" style="stroke: #000000; stroke-width: 0.8"/>
      </g>
     </g>
     <g id="text_7">
      <!-- 3000 -->
      <g transform="translate(241.166501 185.78) scale(0.1 -0.1)">
       <defs>
        <path id="Consolas-33" d="M 3072 1241 
Q 3072 972 2962 736 
Q 2853 500 2634 323 
Q 2416 147 2084 45 
Q 1753 -56 1313 -56 
Q 1069 -56 875 -40 
Q 681 -25 513 0 
L 513 488 
Q 706 453 922 434 
Q 1138 416 1363 416 
Q 1669 416 1886 470 
Q 2103 525 2240 628 
Q 2378 731 2440 878 
Q 2503 1025 2503 1209 
Q 2503 1378 2428 1503 
Q 2353 1628 2217 1712 
Q 2081 1797 1892 1839 
Q 1703 1881 1478 1881 
L 1013 1881 
L 1013 2328 
L 1484 2328 
Q 1669 2328 1820 2376 
Q 1972 2425 2080 2515 
Q 2188 2606 2245 2739 
Q 2303 2872 2303 3041 
Q 2303 3369 2103 3519 
Q 1903 3669 1516 3669 
Q 1309 3669 1090 3628 
Q 872 3588 622 3506 
L 622 3981 
Q 728 4019 848 4048 
Q 969 4078 1089 4098 
Q 1209 4119 1328 4130 
Q 1447 4141 1556 4141 
Q 1881 4141 2128 4070 
Q 2375 4000 2540 3869 
Q 2706 3738 2790 3550 
Q 2875 3363 2875 3128 
Q 2875 2778 2695 2540 
Q 2516 2303 2203 2163 
Q 2363 2138 2517 2063 
Q 2672 1988 2795 1870 
Q 2919 1753 2995 1593 
Q 3072 1434 3072 1241 
z
" transform="scale(0.015625)"/>
       </defs>
       <use xlink:href="#Consolas-33"/>
       <use xlink:href="#Consolas-30" x="54.980469"/>
       <use xlink:href="#Consolas-30" x="109.960938"/>
       <use xlink:href="#Consolas-30" x="164.941406"/>
      </g>
     </g>
    </g>
    <g id="xtick_8">
     <g id="line2d_15">
      <path d="M 285.640126 171.88 
L 285.640126 10.8 
" clip-path="url(#p93b23e02f9)" style="fill: none; stroke: #b0b0b0; stroke-width: 0.8; stroke-linecap: square"/>
     </g>
     <g id="line2d_16">
      <g>
       <use xlink:href="#mbb8033aae3" x="285.640126" y="171.88" style="stroke: #000000; stroke-width: 0.8"/>
      </g>
     </g>
     <g id="text_8">
      <!-- 3500 -->
      <g transform="translate(274.643251 185.78) scale(0.1 -0.1)">
       <use xlink:href="#Consolas-33"/>
       <use xlink:href="#Consolas-35" x="54.980469"/>
       <use xlink:href="#Consolas-30" x="109.960938"/>
       <use xlink:href="#Consolas-30" x="164.941406"/>
      </g>
     </g>
    </g>
    <g id="text_9">
     <!-- Characteristic Impedance ($\Omega$) -->
     <g transform="translate(99.62 199.181563) scale(0.1 -0.1)">
      <defs>
       <path id="Consolas-43" d="M 3109 153 
Q 2619 -50 2081 -50 
Q 1216 -50 752 467 
Q 288 984 288 1997 
Q 288 2488 416 2884 
Q 544 3281 781 3557 
Q 1019 3834 1356 3984 
Q 1694 4134 2113 4134 
Q 2397 4134 2640 4086 
Q 2884 4038 3109 3938 
L 3109 3391 
Q 2888 3513 2650 3577 
Q 2413 3641 2131 3641 
Q 1844 3641 1611 3533 
Q 1378 3425 1215 3220 
Q 1053 3016 965 2720 
Q 878 2425 878 2047 
Q 878 1253 1200 850 
Q 1522 447 2144 447 
Q 2406 447 2647 508 
Q 2888 569 3109 678 
L 3109 153 
z
" transform="scale(0.015625)"/>
       <path id="Consolas-68" d="M 3022 0 
L 2478 0 
L 2478 2003 
Q 2478 2366 2342 2545 
Q 2206 2725 1953 2725 
Q 1844 2725 1748 2695 
Q 1653 2666 1550 2592 
Q 1447 2519 1325 2394 
Q 1203 2269 1044 2081 
L 1044 0 
L 500 0 
L 500 4416 
L 1044 4416 
L 1044 3138 
L 1025 2644 
Q 1153 2797 1276 2901 
Q 1400 3006 1523 3072 
Q 1647 3138 1775 3166 
Q 1903 3194 2041 3194 
Q 2509 3194 2765 2908 
Q 3022 2622 3022 2047 
L 3022 0 
z
" transform="scale(0.015625)"/>
       <path id="Consolas-61" d="M 2516 0 
L 2503 422 
Q 2247 169 1983 56 
Q 1719 -56 1428 -56 
Q 1159 -56 968 12 
Q 778 81 654 201 
Q 531 322 473 484 
Q 416 647 416 838 
Q 416 1309 767 1576 
Q 1119 1844 1806 1844 
L 2456 1844 
L 2456 2119 
Q 2456 2397 2278 2564 
Q 2100 2731 1734 2731 
Q 1469 2731 1211 2672 
Q 953 2613 678 2503 
L 678 2994 
Q 781 3031 907 3067 
Q 1034 3103 1175 3131 
Q 1316 3159 1469 3176 
Q 1622 3194 1778 3194 
Q 2063 3194 2291 3131 
Q 2519 3069 2676 2941 
Q 2834 2813 2918 2619 
Q 3003 2425 3003 2163 
L 3003 0 
L 2516 0 
z
M 2456 1428 
L 1766 1428 
Q 1563 1428 1416 1387 
Q 1269 1347 1175 1272 
Q 1081 1197 1036 1092 
Q 991 988 991 856 
Q 991 766 1019 683 
Q 1047 600 1109 536 
Q 1172 472 1272 434 
Q 1372 397 1516 397 
Q 1703 397 1945 511 
Q 2188 625 2456 872 
L 2456 1428 
z
" transform="scale(0.015625)"/>
       <path id="Consolas-72" d="M 628 3138 
L 1125 3138 
L 1141 2559 
Q 1419 2894 1689 3044 
Q 1959 3194 2234 3194 
Q 2722 3194 2973 2878 
Q 3225 2563 3206 1941 
L 2656 1941 
Q 2666 2353 2536 2539 
Q 2406 2725 2156 2725 
Q 2047 2725 1936 2686 
Q 1825 2647 1708 2561 
Q 1591 2475 1459 2340 
Q 1328 2206 1178 2016 
L 1178 0 
L 628 0 
L 628 3138 
z
" transform="scale(0.015625)"/>
       <path id="Consolas-63" d="M 2938 116 
Q 2725 34 2501 -5 
Q 2278 -44 2041 -44 
Q 1297 -44 895 359 
Q 494 763 494 1538 
Q 494 1909 609 2212 
Q 725 2516 934 2731 
Q 1144 2947 1434 3064 
Q 1725 3181 2075 3181 
Q 2319 3181 2531 3147 
Q 2744 3113 2938 3034 
L 2938 2516 
Q 2734 2622 2523 2670 
Q 2313 2719 2088 2719 
Q 1878 2719 1692 2639 
Q 1506 2559 1365 2409 
Q 1225 2259 1144 2043 
Q 1063 1828 1063 1556 
Q 1063 988 1339 705 
Q 1616 422 2106 422 
Q 2328 422 2536 472 
Q 2744 522 2938 622 
L 2938 116 
z
" transform="scale(0.015625)"/>
       <path id="Consolas-74" d="M 3028 44 
Q 2844 -3 2647 -23 
Q 2450 -44 2247 -44 
Q 1656 -44 1365 223 
Q 1075 491 1075 1044 
L 1075 2681 
L 197 2681 
L 197 3138 
L 1075 3138 
L 1075 4000 
L 1619 4141 
L 1619 3138 
L 3028 3138 
L 3028 2681 
L 1619 2681 
L 1619 1088 
Q 1619 750 1798 583 
Q 1978 416 2328 416 
Q 2478 416 2656 439 
Q 2834 463 3028 513 
L 3028 44 
z
" transform="scale(0.015625)"/>
       <path id="Consolas-65" d="M 3150 1734 
Q 3150 1619 3147 1541 
Q 3144 1463 3138 1394 
L 934 1394 
Q 934 913 1203 655 
Q 1472 397 1978 397 
Q 2116 397 2253 408 
Q 2391 419 2519 437 
Q 2647 456 2764 479 
Q 2881 503 2981 531 
L 2981 84 
Q 2759 22 2479 -17 
Q 2200 -56 1900 -56 
Q 1497 -56 1206 53 
Q 916 163 730 370 
Q 544 578 455 879 
Q 366 1181 366 1563 
Q 366 1894 461 2189 
Q 556 2484 739 2707 
Q 922 2931 1187 3062 
Q 1453 3194 1791 3194 
Q 2119 3194 2372 3091 
Q 2625 2988 2798 2798 
Q 2972 2609 3061 2339 
Q 3150 2069 3150 1734 
z
M 2584 1813 
Q 2594 2022 2544 2195 
Q 2494 2369 2389 2494 
Q 2284 2619 2128 2689 
Q 1972 2759 1766 2759 
Q 1588 2759 1441 2690 
Q 1294 2622 1187 2497 
Q 1081 2372 1015 2197 
Q 950 2022 934 1813 
L 2584 1813 
z
" transform="scale(0.015625)"/>
       <path id="Consolas-69" d="M 1569 2688 
L 641 2688 
L 641 3138 
L 2119 3138 
L 2119 453 
L 3053 453 
L 3053 0 
L 538 0 
L 538 453 
L 1569 453 
L 1569 2688 
z
M 1759 4453 
Q 1850 4453 1928 4420 
Q 2006 4388 2064 4328 
Q 2122 4269 2155 4192 
Q 2188 4116 2188 4025 
Q 2188 3938 2155 3859 
Q 2122 3781 2064 3722 
Q 2006 3663 1928 3630 
Q 1850 3597 1759 3597 
Q 1669 3597 1591 3630 
Q 1513 3663 1455 3722 
Q 1397 3781 1364 3859 
Q 1331 3938 1331 4025 
Q 1331 4116 1364 4192 
Q 1397 4269 1455 4328 
Q 1513 4388 1591 4420 
Q 1669 4453 1759 4453 
z
" transform="scale(0.015625)"/>
       <path id="Consolas-73" d="M 2984 856 
Q 2984 691 2928 559 
Q 2872 428 2775 326 
Q 2678 225 2550 153 
Q 2422 81 2276 34 
Q 2131 -13 1978 -34 
Q 1825 -56 1678 -56 
Q 1359 -56 1092 -28 
Q 825 0 569 63 
L 569 563 
Q 844 484 1116 443 
Q 1388 403 1656 403 
Q 2047 403 2234 509 
Q 2422 616 2422 813 
Q 2422 897 2392 964 
Q 2363 1031 2284 1092 
Q 2206 1153 2042 1218 
Q 1878 1284 1594 1369 
Q 1381 1431 1201 1511 
Q 1022 1591 890 1700 
Q 759 1809 684 1956 
Q 609 2103 609 2303 
Q 609 2434 670 2590 
Q 731 2747 878 2881 
Q 1025 3016 1275 3105 
Q 1525 3194 1900 3194 
Q 2084 3194 2309 3173 
Q 2534 3153 2778 3103 
L 2778 2619 
Q 2522 2681 2292 2711 
Q 2063 2741 1894 2741 
Q 1691 2741 1552 2709 
Q 1413 2678 1327 2623 
Q 1241 2569 1203 2495 
Q 1166 2422 1166 2338 
Q 1166 2253 1198 2184 
Q 1231 2116 1320 2052 
Q 1409 1988 1568 1923 
Q 1728 1859 1984 1784 
Q 2263 1703 2453 1614 
Q 2644 1525 2762 1415 
Q 2881 1306 2932 1168 
Q 2984 1031 2984 856 
z
" transform="scale(0.015625)"/>
       <path id="Consolas-20" transform="scale(0.015625)"/>
       <path id="Consolas-49" d="M 1478 3616 
L 538 3616 
L 538 4084 
L 2981 4084 
L 2981 3616 
L 2041 3616 
L 2041 475 
L 2981 475 
L 2981 0 
L 538 0 
L 538 475 
L 1478 475 
L 1478 3616 
z
" transform="scale(0.015625)"/>
       <path id="Consolas-6d" d="M 2738 0 
L 2738 2253 
Q 2738 2400 2727 2494 
Q 2716 2588 2692 2642 
Q 2669 2697 2633 2719 
Q 2597 2741 2544 2741 
Q 2481 2741 2428 2703 
Q 2375 2666 2314 2581 
Q 2253 2497 2179 2358 
Q 2106 2219 2006 2016 
L 2006 0 
L 1509 0 
L 1509 2194 
Q 1509 2366 1498 2472 
Q 1488 2578 1464 2637 
Q 1441 2697 1403 2719 
Q 1366 2741 1313 2741 
Q 1256 2741 1206 2709 
Q 1156 2678 1095 2597 
Q 1034 2516 959 2375 
Q 884 2234 781 2016 
L 781 0 
L 281 0 
L 281 3138 
L 697 3138 
L 722 2541 
Q 803 2719 879 2844 
Q 956 2969 1037 3045 
Q 1119 3122 1211 3158 
Q 1303 3194 1416 3194 
Q 1669 3194 1800 3028 
Q 1931 2863 1931 2516 
Q 2006 2678 2078 2804 
Q 2150 2931 2233 3017 
Q 2316 3103 2416 3148 
Q 2516 3194 2647 3194 
Q 3238 3194 3238 2284 
L 3238 0 
L 2738 0 
z
" transform="scale(0.015625)"/>
       <path id="Consolas-70" d="M 3181 1625 
Q 3181 1206 3064 893 
Q 2947 581 2740 375 
Q 2534 169 2253 65 
Q 1972 -38 1644 -38 
Q 1494 -38 1345 -22 
Q 1197 -6 1044 31 
L 1044 -1281 
L 500 -1281 
L 500 3138 
L 984 3138 
L 1019 2613 
Q 1253 2934 1518 3064 
Q 1784 3194 2094 3194 
Q 2363 3194 2566 3081 
Q 2769 2969 2906 2764 
Q 3044 2559 3112 2270 
Q 3181 1981 3181 1625 
z
M 2625 1600 
Q 2625 1847 2589 2053 
Q 2553 2259 2475 2406 
Q 2397 2553 2275 2636 
Q 2153 2719 1984 2719 
Q 1881 2719 1775 2686 
Q 1669 2653 1555 2576 
Q 1441 2500 1314 2373 
Q 1188 2247 1044 2059 
L 1044 538 
Q 1194 475 1359 439 
Q 1525 403 1684 403 
Q 2125 403 2375 701 
Q 2625 1000 2625 1600 
z
" transform="scale(0.015625)"/>
       <path id="Consolas-64" d="M 341 1503 
Q 341 1903 450 2214 
Q 559 2525 761 2739 
Q 963 2953 1245 3064 
Q 1528 3175 1875 3175 
Q 2025 3175 2170 3156 
Q 2316 3138 2456 3097 
L 2456 4416 
L 3003 4416 
L 3003 0 
L 2516 0 
L 2497 594 
Q 2269 263 2003 103 
Q 1738 -56 1428 -56 
Q 1159 -56 954 56 
Q 750 169 614 373 
Q 478 578 409 865 
Q 341 1153 341 1503 
z
M 897 1538 
Q 897 969 1064 689 
Q 1231 409 1538 409 
Q 1744 409 1973 593 
Q 2203 778 2456 1141 
L 2456 2597 
Q 2322 2659 2159 2692 
Q 1997 2725 1838 2725 
Q 1394 2725 1145 2437 
Q 897 2150 897 1538 
z
" transform="scale(0.015625)"/>
       <path id="Consolas-6e" d="M 500 3138 
L 984 3138 
L 1006 2631 
Q 1144 2794 1272 2901 
Q 1400 3009 1523 3075 
Q 1647 3141 1775 3167 
Q 1903 3194 2041 3194 
Q 2525 3194 2773 2908 
Q 3022 2622 3022 2047 
L 3022 0 
L 2478 0 
L 2478 2003 
Q 2478 2372 2340 2548 
Q 2203 2725 1931 2725 
Q 1831 2725 1736 2695 
Q 1641 2666 1537 2592 
Q 1434 2519 1314 2394 
Q 1194 2269 1044 2081 
L 1044 0 
L 500 0 
L 500 3138 
z
" transform="scale(0.015625)"/>
       <path id="Consolas-28" d="M 2378 -1313 
Q 938 22 938 1638 
Q 938 2016 1014 2392 
Q 1091 2769 1261 3147 
Q 1431 3525 1711 3903 
Q 1991 4281 2391 4653 
L 2706 4331 
Q 1494 3134 1494 1678 
Q 1494 953 1800 284 
Q 2106 -384 2706 -978 
L 2378 -1313 
z
" transform="scale(0.015625)"/>
       <path id="DejaVuSans-3a9" d="M 4647 556 
L 4647 0 
L 2772 0 
L 2772 556 
Q 3325 859 3634 1378 
Q 3944 1897 3944 2528 
Q 3944 3278 3531 3731 
Q 3119 4184 2444 4184 
Q 1769 4184 1355 3729 
Q 941 3275 941 2528 
Q 941 1897 1250 1378 
Q 1563 859 2119 556 
L 2119 0 
L 244 0 
L 244 556 
L 1241 556 
Q 747 991 519 1456 
Q 294 1922 294 2497 
Q 294 3491 894 4106 
Q 1491 4722 2444 4722 
Q 3391 4722 3994 4106 
Q 4594 3494 4594 2528 
Q 4594 1922 4372 1459 
Q 4150 997 3647 556 
L 4647 556 
z
" transform="scale(0.015625)"/>
       <path id="Consolas-29" d="M 1141 4653 
Q 2581 3319 2581 1684 
Q 2581 1347 2512 984 
Q 2444 622 2278 242 
Q 2113 -138 1833 -528 
Q 1553 -919 1128 -1313 
L 813 -991 
Q 1422 -388 1722 268 
Q 2022 925 2022 1644 
Q 2022 3131 813 4319 
L 1141 4653 
z
" transform="scale(0.015625)"/>
      </defs>
      <use xlink:href="#Consolas-43" transform="translate(0 0.21875)"/>
      <use xlink:href="#Consolas-68" transform="translate(54.980469 0.21875)"/>
      <use xlink:href="#Consolas-61" transform="translate(109.960938 0.21875)"/>
      <use xlink:href="#Consolas-72" transform="translate(164.941406 0.21875)"/>
      <use xlink:href="#Consolas-61" transform="translate(219.921875 0.21875)"/>
      <use xlink:href="#Consolas-63" transform="translate(274.902344 0.21875)"/>
      <use xlink:href="#Consolas-74" transform="translate(329.882812 0.21875)"/>
      <use xlink:href="#Consolas-65" transform="translate(384.863281 0.21875)"/>
      <use xlink:href="#Consolas-72" transform="translate(439.84375 0.21875)"/>
      <use xlink:href="#Consolas-69" transform="translate(494.824219 0.21875)"/>
      <use xlink:href="#Consolas-73" transform="translate(549.804688 0.21875)"/>
      <use xlink:href="#Consolas-74" transform="translate(604.785156 0.21875)"/>
      <use xlink:href="#Consolas-69" transform="translate(659.765625 0.21875)"/>
      <use xlink:href="#Consolas-63" transform="translate(714.746094 0.21875)"/>
      <use xlink:href="#Consolas-20" transform="translate(769.726562 0.21875)"/>
      <use xlink:href="#Consolas-49" transform="translate(824.707031 0.21875)"/>
      <use xlink:href="#Consolas-6d" transform="translate(879.6875 0.21875)"/>
      <use xlink:href="#Consolas-70" transform="translate(934.667969 0.21875)"/>
      <use xlink:href="#Consolas-65" transform="translate(989.648438 0.21875)"/>
      <use xlink:href="#Consolas-64" transform="translate(1044.628906 0.21875)"/>
      <use xlink:href="#Consolas-61" transform="translate(1099.609375 0.21875)"/>
      <use xlink:href="#Consolas-6e" transform="translate(1154.589844 0.21875)"/>
      <use xlink:href="#Consolas-63" transform="translate(1209.570312 0.21875)"/>
      <use xlink:href="#Consolas-65" transform="translate(1264.550781 0.21875)"/>
      <use xlink:href="#Consolas-20" transform="translate(1319.53125 0.21875)"/>
      <use xlink:href="#Consolas-28" transform="translate(1374.511719 0.21875)"/>
      <use xlink:href="#DejaVuSans-3a9" transform="translate(1429.492188 0.21875)"/>
      <use xlink:href="#Consolas-29" transform="translate(1505.908203 0.21875)"/>
     </g>
    </g>
   </g>
   <g id="matplotlib.axis_2">
    <g id="ytick_1">
     <g id="line2d_17">
      <path d="M 42.14 171.88 
L 313.2 171.88 
" clip-path="url(#p93b23e02f9)" style="fill: none; stroke: #b0b0b0; stroke-width: 0.8; stroke-linecap: square"/>
     </g>
     <g id="line2d_18">
      <defs>
       <path id="m6447bd7bd1" d="M 0 0 
L -3.5 0 
" style="stroke: #000000; stroke-width: 0.8"/>
      </defs>
      <g>
       <use xlink:href="#m6447bd7bd1" x="42.14" y="171.88" style="stroke: #000000; stroke-width: 0.8"/>
      </g>
     </g>
     <g id="text_10">
      <!-- 0 -->
      <g transform="translate(29.641563 175.33) scale(0.1 -0.1)">
       <use xlink:href="#Consolas-30"/>
      </g>
     </g>
    </g>
    <g id="ytick_2">
     <g id="line2d_19">
      <path d="M 42.14 133.527619 
L 313.2 133.527619 
" clip-path="url(#p93b23e02f9)" style="fill: none; stroke: #b0b0b0; stroke-width: 0.8; stroke-linecap: square"/>
     </g>
     <g id="line2d_20">
      <g>
       <use xlink:href="#m6447bd7bd1" x="42.14" y="133.527619" style="stroke: #000000; stroke-width: 0.8"/>
      </g>
     </g>
     <g id="text_11">
      <!-- 20 -->
      <g transform="translate(24.143125 136.977619) scale(0.1 -0.1)">
       <use xlink:href="#Consolas-32"/>
       <use xlink:href="#Consolas-30" x="54.980469"/>
      </g>
     </g>
    </g>
    <g id="ytick_3">
     <g id="line2d_21">
      <path d="M 42.14 95.175238 
L 313.2 95.175238 
" clip-path="url(#p93b23e02f9)" style="fill: none; stroke: #b0b0b0; stroke-width: 0.8; stroke-linecap: square"/>
     </g>
     <g id="line2d_22">
      <g>
       <use xlink:href="#m6447bd7bd1" x="42.14" y="95.175238" style="stroke: #000000; stroke-width: 0.8"/>
      </g>
     </g>
     <g id="text_12">
      <!-- 40 -->
      <g transform="translate(24.143125 98.625238) scale(0.1 -0.1)">
       <defs>
        <path id="Consolas-34" d="M 3353 903 
L 2656 903 
L 2656 0 
L 2100 0 
L 2100 903 
L 134 903 
L 134 1381 
L 1875 4084 
L 2656 4084 
L 2656 1381 
L 3353 1381 
L 3353 903 
z
M 2100 3559 
L 678 1381 
L 2100 1381 
L 2100 3559 
z
" transform="scale(0.015625)"/>
       </defs>
       <use xlink:href="#Consolas-34"/>
       <use xlink:href="#Consolas-30" x="54.980469"/>
      </g>
     </g>
    </g>
    <g id="ytick_4">
     <g id="line2d_23">
      <path d="M 42.14 56.822857 
L 313.2 56.822857 
" clip-path="url(#p93b23e02f9)" style="fill: none; stroke: #b0b0b0; stroke-width: 0.8; stroke-linecap: square"/>
     </g>
     <g id="line2d_24">
      <g>
       <use xlink:href="#m6447bd7bd1" x="42.14" y="56.822857" style="stroke: #000000; stroke-width: 0.8"/>
      </g>
     </g>
     <g id="text_13">
      <!-- 60 -->
      <g transform="translate(24.143125 60.272857) scale(0.1 -0.1)">
       <defs>
        <path id="Consolas-36" d="M 3200 1294 
Q 3200 1013 3098 766 
Q 2997 519 2809 336 
Q 2622 153 2358 48 
Q 2094 -56 1772 -56 
Q 1434 -56 1175 51 
Q 916 159 741 382 
Q 566 606 475 947 
Q 384 1288 384 1753 
Q 384 2066 425 2359 
Q 466 2653 559 2912 
Q 653 3172 809 3387 
Q 966 3603 1198 3758 
Q 1431 3913 1747 3998 
Q 2063 4084 2478 4084 
L 2881 4084 
L 2881 3609 
L 2444 3609 
Q 2078 3609 1809 3521 
Q 1541 3434 1359 3275 
Q 1178 3116 1081 2891 
Q 984 2666 959 2388 
L 947 2259 
Q 1144 2375 1401 2445 
Q 1659 2516 1959 2516 
Q 2269 2516 2501 2425 
Q 2734 2334 2889 2173 
Q 3044 2013 3122 1788 
Q 3200 1563 3200 1294 
z
M 2631 1259 
Q 2631 1447 2586 1598 
Q 2541 1750 2444 1854 
Q 2347 1959 2198 2017 
Q 2050 2075 1844 2075 
Q 1725 2075 1603 2053 
Q 1481 2031 1364 1992 
Q 1247 1953 1140 1903 
Q 1034 1853 947 1797 
Q 947 1394 1003 1123 
Q 1059 853 1170 690 
Q 1281 528 1443 459 
Q 1606 391 1819 391 
Q 1997 391 2145 448 
Q 2294 506 2401 618 
Q 2509 731 2570 892 
Q 2631 1053 2631 1259 
z
" transform="scale(0.015625)"/>
       </defs>
       <use xlink:href="#Consolas-36"/>
       <use xlink:href="#Consolas-30" x="54.980469"/>
      </g>
     </g>
    </g>
    <g id="ytick_5">
     <g id="line2d_25">
      <path d="M 42.14 18.470476 
L 313.2 18.470476 
" clip-path="url(#p93b23e02f9)" style="fill: none; stroke: #b0b0b0; stroke-width: 0.8; stroke-linecap: square"/>
     </g>
     <g id="line2d_26">
      <g>
       <use xlink:href="#m6447bd7bd1" x="42.14" y="18.470476" style="stroke: #000000; stroke-width: 0.8"/>
      </g>
     </g>
     <g id="text_14">
      <!-- 80 -->
      <g transform="translate(24.143125 21.920476) scale(0.1 -0.1)">
       <defs>
        <path id="Consolas-38" d="M 3150 1025 
Q 3150 766 3044 564 
Q 2938 363 2747 225 
Q 2556 88 2297 16 
Q 2038 -56 1734 -56 
Q 1400 -56 1145 19 
Q 891 94 719 228 
Q 547 363 459 547 
Q 372 731 372 953 
Q 372 1328 581 1600 
Q 791 1872 1228 2094 
Q 828 2297 643 2545 
Q 459 2794 459 3116 
Q 459 3313 540 3497 
Q 622 3681 786 3825 
Q 950 3969 1197 4055 
Q 1444 4141 1778 4141 
Q 2094 4141 2333 4073 
Q 2572 4006 2734 3881 
Q 2897 3756 2978 3578 
Q 3059 3400 3059 3181 
Q 3059 2825 2861 2575 
Q 2663 2325 2297 2138 
Q 2478 2047 2634 1937 
Q 2791 1828 2906 1693 
Q 3022 1559 3086 1393 
Q 3150 1228 3150 1025 
z
M 2503 3138 
Q 2503 3416 2308 3552 
Q 2113 3688 1759 3688 
Q 1409 3688 1214 3553 
Q 1019 3419 1019 3150 
Q 1019 3028 1066 2925 
Q 1113 2822 1211 2731 
Q 1309 2641 1456 2553 
Q 1603 2466 1806 2375 
Q 2159 2541 2331 2720 
Q 2503 2900 2503 3138 
z
M 2559 984 
Q 2559 1100 2521 1209 
Q 2484 1319 2387 1425 
Q 2291 1531 2128 1637 
Q 1966 1744 1716 1856 
Q 1503 1753 1358 1651 
Q 1213 1550 1123 1445 
Q 1034 1341 996 1228 
Q 959 1116 959 991 
Q 959 850 1020 742 
Q 1081 634 1187 559 
Q 1294 484 1441 446 
Q 1588 409 1759 409 
Q 1925 409 2072 443 
Q 2219 478 2326 548 
Q 2434 619 2496 726 
Q 2559 834 2559 984 
z
" transform="scale(0.015625)"/>
       </defs>
       <use xlink:href="#Consolas-38"/>
       <use xlink:href="#Consolas-30" x="54.980469"/>
      </g>
     </g>
    </g>
    <g id="text_15">
     <!-- Counts -->
     <g transform="translate(18.141563 107.835313) rotate(-90) scale(0.1 -0.1)">
      <defs>
       <path id="Consolas-6f" d="M 3231 1594 
Q 3231 1228 3128 923 
Q 3025 619 2831 401 
Q 2638 184 2359 64 
Q 2081 -56 1728 -56 
Q 1391 -56 1123 48 
Q 856 153 670 356 
Q 484 559 386 859 
Q 288 1159 288 1550 
Q 288 1916 391 2217 
Q 494 2519 687 2736 
Q 881 2953 1159 3073 
Q 1438 3194 1791 3194 
Q 2128 3194 2395 3089 
Q 2663 2984 2848 2782 
Q 3034 2581 3132 2281 
Q 3231 1981 3231 1594 
z
M 2675 1569 
Q 2675 1859 2611 2076 
Q 2547 2294 2428 2439 
Q 2309 2584 2139 2657 
Q 1969 2731 1759 2731 
Q 1516 2731 1342 2636 
Q 1169 2541 1058 2381 
Q 947 2222 895 2011 
Q 844 1800 844 1569 
Q 844 1278 908 1059 
Q 972 841 1090 695 
Q 1209 550 1378 476 
Q 1547 403 1759 403 
Q 2003 403 2176 498 
Q 2350 594 2461 753 
Q 2572 913 2623 1123 
Q 2675 1334 2675 1569 
z
" transform="scale(0.015625)"/>
       <path id="Consolas-75" d="M 3022 0 
L 2534 0 
L 2516 506 
Q 2375 344 2248 236 
Q 2122 128 1997 62 
Q 1872 -3 1745 -29 
Q 1619 -56 1478 -56 
Q 994 -56 747 228 
Q 500 513 500 1088 
L 500 3138 
L 1044 3138 
L 1044 1131 
Q 1044 409 1588 409 
Q 1688 409 1783 439 
Q 1878 469 1983 542 
Q 2088 616 2208 741 
Q 2328 866 2478 1056 
L 2478 3138 
L 3022 3138 
L 3022 0 
z
" transform="scale(0.015625)"/>
      </defs>
      <use xlink:href="#Consolas-43"/>
      <use xlink:href="#Consolas-6f" x="54.980469"/>
      <use xlink:href="#Consolas-75" x="109.960938"/>
      <use xlink:href="#Consolas-6e" x="164.941406"/>
      <use xlink:href="#Consolas-74" x="219.921875"/>
      <use xlink:href="#Consolas-73" x="274.902344"/>
     </g>
    </g>
   </g>
   <g id="patch_18">
    <path d="M 42.14 171.88 
L 42.14 10.8 
" style="fill: none; stroke: #000000; stroke-width: 0.8; stroke-linejoin: miter; stroke-linecap: square"/>
   </g>
   <g id="patch_19">
    <path d="M 313.2 171.88 
L 313.2 10.8 
" style="fill: none; stroke: #000000; stroke-width: 0.8; stroke-linejoin: miter; stroke-linecap: square"/>
   </g>
   <g id="patch_20">
    <path d="M 42.14 171.88 
L 313.2 171.88 
" style="fill: none; stroke: #000000; stroke-width: 0.8; stroke-linejoin: miter; stroke-linecap: square"/>
   </g>
   <g id="patch_21">
    <path d="M 42.14 10.8 
L 313.2 10.8 
" style="fill: none; stroke: #000000; stroke-width: 0.8; stroke-linejoin: miter; stroke-linecap: square"/>
   </g>
  </g>
 </g>
 <defs>
  <clipPath id="p93b23e02f9">
   <rect x="42.14" y="10.8" width="271.06" height="161.08"/>
  </clipPath>
 </defs>
</svg>
